<?xml version="1.0" encoding="utf-8"?>
<!-- Generator: Adobe Illustrator 16.0.0, SVG Export Plug-In . SVG Version: 6.00 Build 0)  -->
<!DOCTYPE svg PUBLIC "-//W3C//DTD SVG 1.1//EN" "http://www.w3.org/Graphics/SVG/1.1/DTD/svg11.dtd">
<svg version="1.1" id="Capa_1" xmlns="http://www.w3.org/2000/svg" xmlns:xlink="http://www.w3.org/1999/xlink" x="0px" y="0px"
	 width="549.174px" height="532.64px" viewBox="-8.296 0 549.174 532.64" enable-background="new -8.296 0 549.174 532.64"
	 xml:space="preserve">
<path fill="#595959" stroke="#383838" stroke-width="4.6705" d="M508.887,318.612c16.38,0,29.656,13.274,29.656,29.651v152.39
	c0,16.377-13.275,29.652-29.654,29.652H23.693C7.315,530.308-5.96,517.03-5.96,500.653l0.002-152.388
	c0-16.377,13.276-29.651,29.656-29.651L508.887,318.612z"/>
<linearGradient id="SVGID_1_" gradientUnits="userSpaceOnUse" x1="9.0417" y1="424.4609" x2="523.5437" y2="424.4609">
	<stop  offset="0" style="stop-color:#B4BBCC"/>
	<stop  offset="1" style="stop-color:#DFE2EA"/>
</linearGradient>
<path fill="url(#SVGID_1_)" d="M508.889,333.614l-435.645,0.002H23.696c-8.08,0-14.654,6.571-14.654,14.65v152.389
	c0,8.079,6.571,14.652,14.651,14.652h485.195c8.08,0,14.655-6.573,14.655-14.654V348.265
	C523.544,340.186,516.969,333.614,508.889,333.614z"/>
<linearGradient id="SVGID_2_" gradientUnits="userSpaceOnUse" x1="135.489" y1="213.3535" x2="299.847" y2="476.3813">
	<stop  offset="0" style="stop-color:#FFFFFF"/>
	<stop  offset="1" style="stop-color:#FFFFFF;stop-opacity:0"/>
</linearGradient>
<path fill="url(#SVGID_2_)" d="M508.889,333.614l-435.645,0.002H23.696c-8.08,0-14.654,6.571-14.654,14.65v152.389
	c0,0.234,0.024,0.463,0.035,0.695c148.852-125.204,339.9-168.476,514.467-151.361v-1.725
	C523.544,340.186,516.969,333.614,508.889,333.614z"/>
<path fill="#595959" stroke="#383838" stroke-width="4.6705" d="M352.235,20.066v-0.075c0-4.282-1.739-8.45-4.771-11.436
	c-2.982-2.938-7.095-4.612-11.301-4.604h-0.033h-128.53h-0.075c-4.282,0-8.451,1.739-11.437,4.771
	c-2.917,2.951-4.603,7.063-4.603,11.263v0.07l-0.001,160.188h-24.312c-13.22,0-24.584,3.309-32.863,9.57
	c-9.25,6.992-14.344,17.301-14.346,29.025l0,0l0,0l0,0c0,9.816,3.479,20.012,10.342,30.302l0.184,0.276l0.195,0.267L260.11,426.345
	l12.1,16.516l12.1-16.516l129.425-176.659l0.195-0.268l0.186-0.277c6.859-10.292,10.339-20.486,10.339-30.298
	c0-11.727-5.095-22.035-14.345-29.029c-8.279-6.26-19.646-9.57-32.866-9.57h-24.309L352.235,20.066z"/>
<linearGradient id="SVGID_3_" gradientUnits="userSpaceOnUse" x1="409.4529" y1="228.5962" x2="134.9626" y2="228.5962" gradientTransform="matrix(-1 0 0 -1 544.4175 446.8125)">
	<stop  offset="0" style="stop-color:#FF641A"/>
	<stop  offset="1" style="stop-color:#F03800"/>
</linearGradient>
<path fill="url(#SVGID_3_)" d="M337.936,195.243h39.308c20.57,0,32.21,9.559,32.21,23.6c0,6.526-2.519,14.023-7.82,21.979
	L272.21,417.479L142.784,240.822c-5.304-7.955-7.82-15.452-7.82-21.979c0.002-14.04,11.644-23.6,32.209-23.6h39.312V20.059v-0.03
	v-0.035c0-0.001,0-0.003,0-0.005c0-0.282,0.128-0.574,0.292-0.74c0.184-0.187,0.459-0.294,0.746-0.294h0.035h0.04H336.13h0.029
	h0.035c0.285-0.002,0.579,0.127,0.745,0.292c0.187,0.185,0.295,0.459,0.295,0.746v0.035v0.04L337.936,195.243z"/>
<linearGradient id="SVGID_4_" gradientUnits="userSpaceOnUse" x1="164.7859" y1="9.8901" x2="287.121" y2="205.6673">
	<stop  offset="0" style="stop-color:#FFFFFF"/>
	<stop  offset="1" style="stop-color:#FFFFFF;stop-opacity:0"/>
</linearGradient>
<path fill="url(#SVGID_4_)" d="M337.234,20.067v-0.04v-0.035c0-0.287-0.108-0.562-0.295-0.746c-0.166-0.165-0.46-0.294-0.745-0.292
	h-0.035h-0.029H207.597h-0.04h-0.035c-0.287,0-0.563,0.107-0.746,0.294c-0.164,0.166-0.292,0.458-0.292,0.74
	c0,0.002,0,0.004,0,0.005v0.035v0.03v175.184h-39.312c-20.565,0-32.207,9.56-32.209,23.6c0,6.527,2.517,14.024,7.82,21.979
	c62.64-29,128.674-47.597,195.107-56.912L337.234,20.067z"/>
</svg>
