<?xml version="1.0" encoding="utf-8"?>
<!-- Generator: Adobe Illustrator 16.0.0, SVG Export Plug-In . SVG Version: 6.00 Build 0)  -->
<!DOCTYPE svg PUBLIC "-//W3C//DTD SVG 1.1//EN" "http://www.w3.org/Graphics/SVG/1.1/DTD/svg11.dtd">
<svg version="1.1" id="Capa_1" xmlns="http://www.w3.org/2000/svg" xmlns:xlink="http://www.w3.org/1999/xlink" x="0px" y="0px"
	 width="549.174px" height="532.64px" viewBox="-8.296 0 549.174 532.64" enable-background="new -8.296 0 549.174 532.64"
	 xml:space="preserve">
<path fill="#595959" stroke="#383838" stroke-width="4.6705" d="M508.887,318.612c16.38,0,29.656,13.274,29.656,29.651v152.39
	c0,16.377-13.275,29.652-29.654,29.652H23.693C7.315,530.308-5.96,517.03-5.96,500.653l0.002-152.388
	c0-16.377,13.276-29.651,29.656-29.651L508.887,318.612z"/>
<linearGradient id="SVGID_1_" gradientUnits="userSpaceOnUse" x1="9.0417" y1="424.4609" x2="523.5437" y2="424.4609">
	<stop  offset="0" style="stop-color:#B4BBCC"/>
	<stop  offset="1" style="stop-color:#DFE2EA"/>
</linearGradient>
<path fill="url(#SVGID_1_)" d="M508.889,333.614l-435.645,0.002H23.696c-8.08,0-14.654,6.571-14.654,14.65v152.389
	c0,8.079,6.571,14.652,14.651,14.652h485.195c8.08,0,14.655-6.573,14.655-14.654V348.265
	C523.544,340.186,516.969,333.614,508.889,333.614z"/>
<linearGradient id="SVGID_2_" gradientUnits="userSpaceOnUse" x1="135.489" y1="213.3535" x2="299.847" y2="476.3813">
	<stop  offset="0" style="stop-color:#FFFFFF"/>
	<stop  offset="1" style="stop-color:#FFFFFF;stop-opacity:0"/>
</linearGradient>
<path fill="url(#SVGID_2_)" d="M508.889,333.614l-435.645,0.002H23.696c-8.08,0-14.654,6.571-14.654,14.65v152.389
	c0,0.234,0.024,0.463,0.035,0.695c148.852-125.204,339.9-168.476,514.467-151.361v-1.725
	C523.544,340.186,516.969,333.614,508.889,333.614z"/>
<path fill="#595959" stroke="#383838" stroke-width="4.6705" d="M192.182,426.746v0.075c0,4.282,1.739,8.45,4.771,11.436
	c2.982,2.938,7.095,4.612,11.301,4.604h0.033h128.53h0.075c4.282,0,8.451-1.739,11.437-4.771c2.917-2.951,4.603-7.063,4.603-11.263
	v-0.07l0.001-160.188h24.312c13.22,0,24.584-3.309,32.863-9.57c9.25-6.992,14.344-17.301,14.346-29.025l0,0l0,0l0,0
	c0-9.816-3.479-20.012-10.342-30.302l-0.184-0.276l-0.195-0.267L284.307,20.467l-12.1-16.516l-12.1,16.516L130.683,197.126
	l-0.195,0.268l-0.186,0.277c-6.859,10.292-10.339,20.486-10.339,30.298c0,11.727,5.095,22.035,14.345,29.029
	c8.279,6.26,19.646,9.57,32.866,9.57h24.309L192.182,426.746z"/>
<linearGradient id="SVGID_3_" gradientUnits="userSpaceOnUse" x1="134.9636" y1="228.5957" x2="409.4539" y2="228.5957">
	<stop  offset="0" style="stop-color:#76E2F8"/>
	<stop  offset="1" style="stop-color:#4BB9EC"/>
</linearGradient>
<path fill="url(#SVGID_3_)" d="M206.481,251.57h-39.308c-20.57,0-32.21-9.559-32.21-23.6c0-6.526,2.519-14.023,7.82-21.979
	L272.208,29.333l129.426,176.658c5.304,7.955,7.82,15.452,7.82,21.979c-0.002,14.04-11.644,23.6-32.209,23.6h-39.312v175.184v0.03
	v0.035c0,0.001,0,0.003,0,0.005c0,0.282-0.128,0.574-0.292,0.74c-0.184,0.187-0.459,0.294-0.746,0.294h-0.035h-0.04H208.288h-0.029
	h-0.035c-0.285,0.002-0.579-0.127-0.745-0.292c-0.187-0.185-0.295-0.459-0.295-0.746v-0.035v-0.04L206.481,251.57z"/>
<linearGradient id="SVGID_4_" gradientUnits="userSpaceOnUse" x1="167.948" y1="61.125" x2="282.6762" y2="244.7285">
	<stop  offset="0" style="stop-color:#FFFFFF"/>
	<stop  offset="1" style="stop-color:#FFFFFF;stop-opacity:0"/>
</linearGradient>
<path fill="url(#SVGID_4_)" d="M272.208,29.333L142.784,205.992c-5.302,7.955-7.82,15.452-7.82,21.979
	c0,10.168,6.108,17.982,17.289,21.521c75.545-34.975,156.026-54.832,236.19-61.506L272.208,29.333z"/>
</svg>
