<?xml version="1.0" encoding="utf-8"?>
<!-- Generator: Adobe Illustrator 16.0.0, SVG Export Plug-In . SVG Version: 6.00 Build 0)  -->
<!DOCTYPE svg PUBLIC "-//W3C//DTD SVG 1.1//EN" "http://www.w3.org/Graphics/SVG/1.1/DTD/svg11.dtd">
<svg version="1.1" id="Capa_1" xmlns="http://www.w3.org/2000/svg" xmlns:xlink="http://www.w3.org/1999/xlink" x="0px" y="0px"
	 width="645.549px" height="531.538px" viewBox="-149.428 -19.529 645.549 531.538"
	 enable-background="new -149.428 -19.529 645.549 531.538" xml:space="preserve">
<path fill="#595959" stroke="#383838" stroke-width="4.6705" d="M16.154-17.193h-148.246h-15v15v496.867v15h15h610.879h15v-15V64.5
	v-15h-15H84.2L69.808,17.505c-4.264-9.48-12.104-18.252-22.074-24.7C37.765-13.643,26.549-17.193,16.154-17.193L16.154-17.193z"/>
<linearGradient id="SVGID_1_" gradientUnits="userSpaceOnUse" x1="-132.0925" y1="246.2402" x2="478.7864" y2="246.2402">
	<stop  offset="0" style="stop-color:#D4911C"/>
	<stop  offset="1" style="stop-color:#FFB837"/>
</linearGradient>
<path fill="url(#SVGID_1_)" d="M74.5,64.5L56.129,23.658l0,0C49.733,9.44,31.744-2.193,16.154-2.193h-148.246v496.867h610.879V64.5
	H74.5z"/>
<rect x="297.459" y="64.5" fill="#595959" width="55.475" height="160"/>
<linearGradient id="SVGID_2_" gradientUnits="userSpaceOnUse" x1="289.2834" y1="214.1196" x2="386.8756" y2="453.2619">
	<stop  offset="0" style="stop-color:#858585"/>
	<stop  offset="0.6344" style="stop-color:#CBCBCB"/>
	<stop  offset="1" style="stop-color:#6B6B6B"/>
</linearGradient>
<path fill="url(#SVGID_2_)" d="M381.014,224.5H269.38c-15.591,0-28.347,12.756-28.347,28.347v2.307
	c0,15.591,9.644,34.872,21.429,42.847c10.851,7.341,19.877,24.261,21.244,39.064V461.5h82.98V337.075
	c1.364-14.807,10.393-31.732,21.245-39.075c11.785-7.975,21.429-27.256,21.429-42.847v-2.307
	C409.361,237.256,396.605,224.5,381.014,224.5z M351.687,440h-52.98v-29h52.98V440z"/>
<linearGradient id="SVGID_3_" gradientUnits="userSpaceOnUse" x1="300.2385" y1="177.4341" x2="319.2922" y2="224.1236">
	<stop  offset="0" style="stop-color:#858585"/>
	<stop  offset="0.871" style="stop-color:#CBCBCB"/>
</linearGradient>
<rect x="278.906" y="186.14" fill="url(#SVGID_3_)" width="61.719" height="29.279"/>
<linearGradient id="SVGID_4_" gradientUnits="userSpaceOnUse" x1="331.0989" y1="139.4341" x2="350.1529" y2="186.1245">
	<stop  offset="0" style="stop-color:#858585"/>
	<stop  offset="0.871" style="stop-color:#CBCBCB"/>
</linearGradient>
<rect x="309.767" y="148.14" fill="url(#SVGID_4_)" width="61.719" height="29.279"/>
<linearGradient id="SVGID_5_" gradientUnits="userSpaceOnUse" x1="300.2385" y1="102.1558" x2="319.2922" y2="148.8453">
	<stop  offset="0" style="stop-color:#858585"/>
	<stop  offset="0.871" style="stop-color:#CBCBCB"/>
</linearGradient>
<rect x="278.906" y="110.861" fill="url(#SVGID_5_)" width="61.719" height="29.279"/>
<linearGradient id="SVGID_6_" gradientUnits="userSpaceOnUse" x1="331.0989" y1="64.1558" x2="350.1529" y2="110.8462">
	<stop  offset="0" style="stop-color:#858585"/>
	<stop  offset="0.871" style="stop-color:#CBCBCB"/>
</linearGradient>
<rect x="309.767" y="72.861" fill="url(#SVGID_6_)" width="61.719" height="29.279"/>
<linearGradient id="SVGID_7_" gradientUnits="userSpaceOnUse" x1="-43.1829" y1="-137.9937" x2="232.8216" y2="303.7058">
	<stop  offset="0" style="stop-color:#FFFFFF"/>
	<stop  offset="1" style="stop-color:#FFFFFF;stop-opacity:0"/>
</linearGradient>
<path fill="url(#SVGID_7_)" d="M297.459,140.14v33.299C145.627,189.852-5.975,246.455-132.093,352.553V-2.193H16.154
	c15.591,0,33.58,11.633,39.975,25.852L74.5,64.5h222.959v46.361h-18.553v29.279H297.459z M352.934,64.5v8.361h18.552v29.279h-18.552
	v67.07c42.357-1.888,84.492-0.731,125.853,3.286V64.5H352.934z"/>
<linearGradient id="SVGID_8_" gradientUnits="userSpaceOnUse" x1="283.8674" y1="191.1904" x2="349.9318" y2="296.9155">
	<stop  offset="0" style="stop-color:#FFFFFF"/>
	<stop  offset="1" style="stop-color:#FFFFFF;stop-opacity:0"/>
</linearGradient>
<path fill="url(#SVGID_8_)" d="M381.014,224.5H269.38c-15.591,0-28.347,12.756-28.347,28.347v2.307
	c0,15.591,9.644,34.872,21.429,42.847c3.361,2.273,6.545,5.47,9.383,9.234c44.438-17.83,90.058-31.482,136.146-41.217
	c0.883-3.694,1.37-7.372,1.37-10.864v-2.307C409.361,237.256,396.605,224.5,381.014,224.5z"/>
<linearGradient id="SVGID_9_" gradientUnits="userSpaceOnUse" x1="294.1321" y1="170.5859" x2="314.9073" y2="203.8333">
	<stop  offset="0" style="stop-color:#FFFFFF"/>
	<stop  offset="1" style="stop-color:#FFFFFF;stop-opacity:0"/>
</linearGradient>
<path fill="url(#SVGID_9_)" d="M278.906,205.071c20.33-5.933,40.816-11.067,61.397-15.414c0.121-0.506,0.216-1.01,0.321-1.515
	v-2.003h-61.719V205.071z"/>
<linearGradient id="SVGID_10_" gradientUnits="userSpaceOnUse" x1="294.1321" y1="95.3071" x2="314.9073" y2="128.5545">
	<stop  offset="0" style="stop-color:#FFFFFF"/>
	<stop  offset="1" style="stop-color:#FFFFFF;stop-opacity:0"/>
</linearGradient>
<path fill="url(#SVGID_10_)" d="M278.906,129.792c20.33-5.933,40.816-11.067,61.397-15.414c0.121-0.506,0.216-1.01,0.321-1.515
	v-2.003h-61.719V129.792z"/>
<linearGradient id="SVGID_11_" gradientUnits="userSpaceOnUse" x1="324.9924" y1="57.3066" x2="345.7682" y2="90.5549">
	<stop  offset="0" style="stop-color:#FFFFFF"/>
	<stop  offset="1" style="stop-color:#FFFFFF;stop-opacity:0"/>
</linearGradient>
<path fill="url(#SVGID_11_)" d="M309.767,91.792c20.33-5.933,40.816-11.067,61.397-15.414c0.121-0.506,0.216-1.01,0.321-1.515
	v-2.003h-61.719V91.792z"/>
<linearGradient id="SVGID_12_" gradientUnits="userSpaceOnUse" x1="324.9915" y1="132.585" x2="345.7678" y2="165.8341">
	<stop  offset="0" style="stop-color:#FFFFFF"/>
	<stop  offset="1" style="stop-color:#FFFFFF;stop-opacity:0"/>
</linearGradient>
<path fill="url(#SVGID_12_)" d="M309.767,167.071c20.33-5.933,40.816-11.067,61.397-15.414c0.121-0.506,0.216-1.01,0.321-1.515
	v-2.003h-61.719V167.071z"/>
</svg>
