<?xml version="1.0" encoding="utf-8"?>
<!-- Generator: Adobe Illustrator 16.0.0, SVG Export Plug-In . SVG Version: 6.00 Build 0)  -->
<!DOCTYPE svg PUBLIC "-//W3C//DTD SVG 1.1//EN" "http://www.w3.org/Graphics/SVG/1.1/DTD/svg11.dtd">
<svg version="1.1"
	 id="svg2" xmlns:dc="http://purl.org/dc/elements/1.1/" xmlns:cc="http://web.resource.org/cc/" xmlns:rdf="http://www.w3.org/1999/02/22-rdf-syntax-ns#" xmlns:svg="http://www.w3.org/2000/svg" xmlns:sodipodi="http://sodipodi.sourceforge.net/DTD/sodipodi-0.dtd" xmlns:inkscape="http://www.inkscape.org/namespaces/inkscape" inkscape:version="0.44" sodipodi:docname="Lavori in corso.svg" sodipodi:version="0.32" xmlns:ns1="http://sozi.baierouge.fr" sodipodi:docbase="C:\Documents and Settings\Luca\Desktop"
	 xmlns="http://www.w3.org/2000/svg" xmlns:xlink="http://www.w3.org/1999/xlink" x="0px" y="0px" width="595.796px"
	 height="529.859px" viewBox="1.393 155.219 595.796 529.859" enable-background="new 1.393 155.219 595.796 529.859"
	 xml:space="preserve">
<path fill="#595959" stroke="#383838" stroke-width="4.6705" d="M299.33,157.555c-17.609,0-34.014,9.466-42.811,24.706
	L10.782,607.894c-0.11,0.186-0.218,0.373-0.323,0.561l-0.052,0.09l-0.038,0.066c-4.348,7.514-6.641,16.059-6.641,24.729
	c0,27.238,22.159,49.398,49.396,49.398l492.344,0.006h8.926l0.498-0.918c5.354-1.039,10.52-2.963,15.271-5.703
	c23.592-13.623,31.701-43.893,18.082-67.48L342.076,182.26l-4.33-7.5h-0.99c-3.613-4.203-7.926-7.791-12.76-10.581
	C316.492,159.846,307.963,157.556,299.33,157.555L299.33,157.555z"/>
<linearGradient id="SVGID_1_" gradientUnits="userSpaceOnUse" x1="204.656" y1="768.5933" x2="501.8578" y2="292.971">
	<stop  offset="0" style="stop-color:#CC1B1B"/>
	<stop  offset="1" style="stop-color:#B20000"/>
</linearGradient>
<path fill="url(#SVGID_1_)" d="M575.256,616.142L329.086,189.76h-0.004c-2.918-5.064-7.158-9.458-12.586-12.591
	c-16.452-9.498-37.488-3.861-46.986,12.591L23.722,615.482c-0.116,0.193-0.226,0.393-0.339,0.588l-0.041,0.072l0,0
	c-2.929,5.061-4.613,10.93-4.613,17.197c0,18.998,15.4,34.398,34.396,34.398l492.344,0.006l0.006-0.012
	c5.844,0.006,11.768-1.471,17.193-4.602C579.119,653.63,584.756,632.593,575.256,616.142z"/>
<linearGradient id="SVGID_2_" gradientUnits="userSpaceOnUse" x1="240.9202" y1="680.8315" x2="440.1186" y2="362.0475">
	<stop  offset="0" style="stop-color:#EDEC32"/>
	<stop  offset="1" style="stop-color:#B8A600"/>
</linearGradient>
<polygon fill="url(#SVGID_2_)" points="111.232,599.792 299.298,274.053 487.364,599.792 "/>
<path id="path2782_1_" fill="#232323" stroke="#000000" d="M274.701,399.491c-12.754,0.108-25.523,1.067-28.342,2.995
	c-6.134,4.189-12.619,39.152-12.619,39.152s-8.648-8.244-11.643-4.527c-2.92,3.611,9.725,13.908,9.725,13.908l5.494,8.73
	c0,0-7.463,3.963-8.759,7.438c-1.27,3.432-0.31,58.258-0.31,58.258l-11.964,45.609c0,0-3.415,11.35,8.724,13.908
	c12.301,2.59,14.57-8.068,14.57-8.068l14.563-55.027l-0.656-31.387l26.205,32.045l-22.629,46.9c0,0-5.654,10.623,5.803,15.537
	c11.332,4.854,15.539-5.174,15.539-5.174s28.477-55.734,28.477-60.184c0-4.281-7.125-14.563-7.125-14.563l53.705,43.35
	c0,0-10.256,2.518-13.25,11.332c-7.201,0.564-13.115,5.797-13.594,12.963c-9.297,0.725-16.842,2.18-22.344,12.619h142.701
	c0,0-1.791-12.373-18.113-12.963c-1.455-4.021-3.01-5.975-8.73-6.779c1.379-18.877-12.225-17.787-17.801-17.482
	c-12.889-21.207-33.195-15.303-41.088-4.205l-57.281-46.592c0,0,27.604-45.293,27.838-54.359
	c0.219-8.387-23.059-38.53-28.813-41.406C300.199,400.123,287.454,399.382,274.701,399.491z M271.622,424.281l-16.455,17.383
	l3.651-16.936L271.622,424.281z M296.809,463.636l-10.994,20.586l-12.351-10.516L296.809,463.636z"/>
<path id="path2788_1_" sodipodi:cx="377.48624" sodipodi:cy="280.2955" sodipodi:type="arc" sodipodi:ry="21.757132" sodipodi:rx="21.757132" sodipodi:end="6.2556076" sodipodi:start="0" sodipodi:open="true" fill="#232323" stroke="#000000" d="
	M359.946,411.47c-0.139,10.108-8.445,18.19-18.555,18.049c-10.107-0.139-18.188-8.447-18.049-18.553
	c0.141-10.108,8.447-18.189,18.555-18.049c9.91,0.136,17.912,8.138,18.049,18.049"/>
<linearGradient id="SVGID_3_" gradientUnits="userSpaceOnUse" x1="139.4543" y1="191.7876" x2="283.6889" y2="494.1817">
	<stop  offset="0" style="stop-color:#FFFFFF;stop-opacity:0.8"/>
	<stop  offset="1" style="stop-color:#FFFFFF;stop-opacity:0"/>
</linearGradient>
<path fill="url(#SVGID_3_)" d="M269.51,189.76L83.863,511.315c87.58-63.389,206.509-114.746,345.303-148.212L329.086,189.76h-0.004
	c-2.918-5.064-7.158-9.458-12.586-12.591C300.044,167.671,279.008,173.308,269.51,189.76z"/>
</svg>
