<?xml version="1.0" encoding="UTF-8" standalone="no"?>
<svg
   id="Capa_1"
   enable-background="new 0 0 512 512"
   height="460.44083"
   viewBox="0 0 457.59158 460.44083"
   width="457.59158"
   version="1.1"
   sodipodi:docname="magnet.svg"
   inkscape:version="1.2-beta (1b65182c, 2022-04-05)"
   xmlns:inkscape="http://www.inkscape.org/namespaces/inkscape"
   xmlns:sodipodi="http://sodipodi.sourceforge.net/DTD/sodipodi-0.dtd"
   xmlns="http://www.w3.org/2000/svg"
   xmlns:svg="http://www.w3.org/2000/svg">
  <defs
     id="defs237" />
  <sodipodi:namedview
     id="namedview235"
     pagecolor="#ffffff"
     bordercolor="#000000"
     borderopacity="0.25"
     inkscape:pageshadow="2"
     inkscape:pageopacity="0.0"
     inkscape:pagecheckerboard="0"
     inkscape:deskcolor="#d1d1d1"
     showgrid="false"
     inkscape:zoom="0.4609375"
     inkscape:cx="9.7627119"
     inkscape:cy="212.61017"
     inkscape:window-width="1344"
     inkscape:window-height="456"
     inkscape:window-x="523"
     inkscape:window-y="302"
     inkscape:window-maximized="0"
     inkscape:current-layer="Capa_1" />
  <g
     id="g156"
     transform="translate(-8.5600134e-4,-51.557186)">
    <g
       id="g134">
      <path
         d="m 100.659,409.56 c 5.264,5.367 11.105,9.807 17.328,13.341 L 61.08,479.808 C 55.476,475.523 50.109,470.815 44.999,465.684 -15.833,404.502 -14.617,303.461 46.4,242.454 l 98.609,-98.609 55.887,55.887 -98.98,98.98 c -30.473,30.473 -31.431,80.087 -1.257,110.848 z"
         fill="#1785f8"
         id="path132" />
    </g>
    <path
       d="m 189.727,210.899 33.266,-33.266 c 4.288,-4.288 4.288,-11.241 0,-15.529 l -40.359,-40.359 c -4.288,-4.288 -11.241,-4.288 -15.529,0 l -33.266,33.266 z"
       fill="#d9ecfd"
       id="path136" />
    <g
       id="g154">
      <path
         d="m 367.476,366.313 -99.691,99.69 C 206.428,527.35 106.593,527.33 45.266,465.941 l 55.393,-56.382 c 30.473,31.07 80.54,31.256 111.239,0.556 l 99.691,-99.69 z"
         fill="#fb4a59"
         id="path138" />
      <path
         d="m 367.476,366.313 -99.691,99.69 C 206.428,527.35 106.593,527.33 45.266,465.941 l 2.091,-2.133 c 61.11,40.908 144.782,34.398 198.712,-19.532 l 99.68,-99.68 z"
         fill="#f82f40"
         id="path140" />
      <g
         id="g152">
        <path
           d="m 356.307,377.479 33.266,-33.266 c 4.288,-4.288 4.288,-11.241 0,-15.529 l -40.359,-40.359 c -4.288,-4.288 -11.241,-4.288 -15.529,0 l -33.266,33.266 z"
           fill="#ffe1de"
           id="path142" />
        <path
           d="m 389.573,344.216 -33.264,33.264 -21.716,-21.716 33.265,-33.275 c 4.244,-4.244 4.285,-11.116 0.103,-15.411 l 21.613,21.603 c 4.285,4.295 4.285,11.239 -0.001,15.535 z"
           fill="#f8c6c7"
           id="path144" />
        <g
           style="fill:none;stroke:#000000;stroke-width:15;stroke-linecap:round;stroke-linejoin:round;stroke-miterlimit:10"
           id="g150">
          <path
             d=""
             id="path146" />
          <path
             d=""
             id="path148" />
        </g>
      </g>
    </g>
  </g>
  <g
     id="g204"
     transform="translate(134.50761,-38.540237)">
    <g
       id="g196">
      <g
         id="g186">
        <path
           d="M 165.886,78.214 155.784,48.688 c -1.74,-5.086 -7.538,-7.502 -12.375,-5.157 l -17.994,8.725 c -4.837,2.345 -6.53,8.395 -3.614,12.91 l 16.929,26.216 c 2.454,3.8 7.356,5.172 11.425,3.198 l 11.167,-5.415 c 4.07,-1.973 6.028,-6.672 4.564,-10.951 z"
           fill="#fcc16d"
           id="path182" />
        <path
           d="m 155.787,48.685 10.102,29.532 c 1.457,4.277 -0.493,8.974 -4.569,10.95 l -11.163,5.413 c -0.757,0.367 -1.549,0.622 -2.347,0.76 2.631,-2.35 3.697,-6.1 2.51,-9.574 L 140.218,56.234 c -1.74,-5.085 -7.535,-7.498 -12.376,-5.151 l 15.569,-7.55 c 4.84,-2.346 10.636,0.067 12.376,5.152 z"
           fill="#fca62f"
           id="path184" />
      </g>
      <g
         id="g194">
        <g
           id="g192">
          <path
             d="m 221.863,81.278 6.015,-30.621 c 1.036,-5.274 -2.777,-10.266 -8.139,-10.653 l -19.946,-1.44 c -5.361,-0.387 -9.852,4.005 -9.585,9.373 l 1.553,31.168 c 0.225,4.517 3.784,8.157 8.295,8.483 l 12.378,0.894 c 4.512,0.324 8.557,-2.766 9.429,-7.204 z"
             fill="#fcc16d"
             id="path188" />
          <path
             d="m 227.881,50.655 -6.017,30.627 c -0.877,4.433 -4.914,7.525 -9.432,7.199 l -12.374,-0.894 c -0.839,-0.061 -1.652,-0.236 -2.413,-0.515 3.453,-0.72 6.252,-3.435 6.961,-7.036 l 6.017,-30.627 c 1.036,-5.274 -2.777,-10.261 -8.143,-10.649 l 17.258,1.246 c 5.366,0.388 9.179,5.375 8.143,10.649 z"
             fill="#fca62f"
             id="path190" />
        </g>
      </g>
    </g>
    <g
       id="g202">
      <path
         d="M 123.408,112.251 99.897,91.731 c -4.05,-3.534 -10.28,-2.728 -13.295,1.722 l -11.22,16.553 c -3.016,4.449 -1.458,10.535 3.325,12.988 l 27.768,14.239 c 4.025,2.064 8.956,0.801 11.494,-2.943 l 6.963,-10.273 c 2.537,-3.743 1.883,-8.792 -1.524,-11.766 z"
         fill="#fcc16d"
         id="path198" />
      <path
         d="m 99.897,91.729 23.515,20.524 c 3.401,2.976 4.06,8.018 1.518,11.767 l -6.961,10.27 c -0.472,0.696 -1.03,1.313 -1.653,1.832 1.103,-3.351 0.152,-7.132 -2.613,-9.546 L 90.188,106.052 c -4.049,-3.534 -10.275,-2.726 -13.293,1.728 l 9.708,-14.323 c 3.019,-4.454 9.245,-5.263 13.294,-1.728 z"
         fill="#fca62f"
         id="path200" />
    </g>
  </g>
  <g
     id="g228"
     transform="translate(-15.187297,-196.91312)">
    <g
       id="g212">
      <g
         id="g210">
        <path
           d="m 419.939,372.588 26.216,16.928 c 4.516,2.916 10.565,1.222 12.91,-3.614 l 8.725,-17.994 c 2.345,-4.837 -0.071,-10.635 -5.157,-12.375 l -29.526,-10.101 c -4.279,-1.464 -8.978,0.494 -10.952,4.564 l -5.415,11.167 c -1.973,4.07 -0.601,8.972 3.199,11.425 z"
           fill="#fcc16d"
           id="path206" />
        <path
           d="m 446.155,389.52 -26.22,-16.932 c -3.793,-2.456 -5.17,-7.352 -3.194,-11.427 l 5.413,-11.163 c 0.367,-0.757 0.831,-1.447 1.372,-2.05 -0.61,3.474 0.875,7.079 3.958,9.072 l 26.22,16.932 c 4.515,2.916 10.56,1.221 12.907,-3.62 l -7.549,15.569 c -2.348,4.839 -8.392,6.534 -12.907,3.619 z"
           fill="#fca62f"
           id="path208" />
      </g>
    </g>
    <g
       id="g220">
      <g
         id="g218">
        <path
           d="m 374.089,404.846 14.24,27.768 c 2.453,4.783 8.538,6.341 12.988,3.325 l 16.553,-11.221 c 4.449,-3.016 5.256,-9.246 1.721,-13.296 l -20.52,-23.511 c -2.974,-3.408 -8.023,-4.061 -11.766,-1.523 l -10.273,6.963 c -3.744,2.539 -5.007,7.471 -2.943,11.495 z"
           fill="#fcc16d"
           id="path214" />
        <path
           d="m 388.327,432.617 -14.241,-27.774 c -2.057,-4.024 -0.801,-8.952 2.948,-11.493 l 10.27,-6.961 c 0.696,-0.472 1.443,-0.838 2.214,-1.09 -2.266,2.704 -2.782,6.568 -1.108,9.835 l 14.241,27.774 c 2.453,4.783 8.535,6.337 12.988,3.319 l -14.322,9.709 c -4.455,3.018 -10.537,1.464 -12.99,-3.319 z"
           fill="#fca62f"
           id="path216" />
      </g>
    </g>
    <g
       id="g226">
      <path
         d="m 432.214,319.557 31.168,1.552 c 5.369,0.267 9.761,-4.224 9.373,-9.585 l -1.441,-19.946 c -0.387,-5.361 -5.379,-9.175 -10.654,-8.139 l -30.621,6.015 c -4.438,0.872 -7.528,4.917 -7.203,9.428 l 0.894,12.378 c 0.327,4.512 3.967,8.072 8.484,8.297 z"
         fill="#fcc16d"
         id="path222" />
      <path
         d="m 463.384,321.112 -31.173,-1.553 c -4.513,-0.231 -8.153,-3.782 -8.479,-8.299 l -0.894,-12.374 c -0.061,-0.839 -0.004,-1.669 0.163,-2.462 1.209,3.314 4.297,5.694 7.963,5.878 l 31.173,1.553 c 5.368,0.267 9.755,-4.223 9.368,-9.588 l 1.247,17.258 c 0.387,5.364 -4,9.854 -9.368,9.587 z"
         fill="#fca62f"
         id="path224" />
    </g>
  </g>
</svg>
