<?xml version="1.0" encoding="UTF-8" standalone="no"?>
<svg
   id="Layer_1"
   viewBox="0 0 454.883 496.06058"
   data-name="Layer 1"
   version="1.1"
   sodipodi:docname="repeat.svg"
   width="454.883"
   height="496.06058"
   inkscape:version="1.2-beta (1b65182c, 2022-04-05)"
   xmlns:inkscape="http://www.inkscape.org/namespaces/inkscape"
   xmlns:sodipodi="http://sodipodi.sourceforge.net/DTD/sodipodi-0.dtd"
   xmlns="http://www.w3.org/2000/svg"
   xmlns:svg="http://www.w3.org/2000/svg">
  <defs
     id="defs195" />
  <sodipodi:namedview
     id="namedview193"
     pagecolor="#ffffff"
     bordercolor="#000000"
     borderopacity="0.25"
     inkscape:pageshadow="2"
     inkscape:pageopacity="0.0"
     inkscape:pagecheckerboard="0"
     inkscape:deskcolor="#d1d1d1"
     showgrid="false"
     inkscape:zoom="0.4609375"
     inkscape:cx="129.08475"
     inkscape:cy="247.32203"
     inkscape:window-width="1344"
     inkscape:window-height="430"
     inkscape:window-x="0"
     inkscape:window-y="38"
     inkscape:window-maximized="0"
     inkscape:current-layer="Layer_1" />
  <path
     d="m 409.619,244.85556 c -16.136,0 -29.264,13.127 -29.264,29.263 v 68.426 c 0,4.418 -3.583,8 -8,8 H 134.863 c -4.418,0 -8,-3.582 -8,-8 v -52.21 c 0,-6.645 -5.054,-9.255 -6.603,-9.896 -0.729,-0.302 -2.316,-0.845 -4.281,-0.845 -2.21,0 -4.898,0.686 -7.384,3.173 l -89.476,89.476 c -2.012,2.012 -3.119,4.699 -3.119,7.567 0,2.868 1.107,5.555 3.119,7.566 l 89.475,89.476 c 4.697,4.697 10.116,2.969 11.666,2.329 1.549,-0.642 6.603,-3.251 6.603,-9.896 v -52.21 c 0,-4.418 3.582,-8 8,-8 h 274.756 c 16.136,0 29.264,-13.127 29.264,-29.264 v -105.691 c 0,-16.136 -13.127,-29.264 -29.264,-29.264 z"
     fill="#73d0f4"
     id="path182" />
  <path
     d="m 346.288,19.210564 c -4.698,-4.698 -10.117,-2.97 -11.666,-2.329 -1.549,0.641 -6.603,3.251 -6.603,9.896 v 52.21 c 0,2.122 -0.842,4.157 -2.343,5.657 -1.5,1.5 -3.535,2.343 -5.657,2.343 H 45.264 C 29.128,86.987564 16,100.11556 16,116.25156 v 105.69 c 0,16.136 13.127,29.264 29.263,29.264 16.136,0 29.265,-13.127 29.265,-29.263 v -68.427 c 0,-4.418 3.582,-8 8,-8 H 320.02 c 2.122,0 4.157,0.843 5.657,2.343 1.5,1.5 2.343,3.535 2.343,5.657 v 52.211 c 0,6.645 5.054,9.255 6.603,9.896 1.549,0.642 6.968,2.371 11.666,-2.328 l 89.475,-89.476 c 2.011,-2.012 3.119,-4.699 3.119,-7.568 0,-2.868 -1.107,-5.555 -3.119,-7.566 z"
     fill="#73d0f4"
     id="path184" />
  <g
     fill="#3d6889"
     id="g190"
     transform="translate(-29.9,-9.3414364)">
    <path
       d="m 484.783,283.46 c 0,-24.958 -20.305,-45.264 -45.264,-45.264 -24.959,0 -45.264,20.305 -45.264,45.263 v 60.426 H 172.763 v -44.21 c 0,-11.012 -6.315,-20.468 -16.48,-24.679 -10.166,-4.211 -21.317,-1.989 -29.102,5.797 l -89.475,89.476 c -5.034,5.033 -7.806,11.739 -7.806,18.88 0,7.141 2.772,13.848 7.806,18.881 l 89.475,89.476 c 5.179,5.179 11.846,7.896 18.722,7.896 3.461,0 6.977,-0.689 10.38,-2.099 10.166,-4.21 16.48,-13.667 16.48,-24.678 v -44.21 h 266.756 c 24.958,0 45.264,-20.305 45.264,-45.264 z m -16,105.691 c 0,16.136 -13.127,29.264 -29.264,29.264 H 164.763 c -4.418,0 -8,3.582 -8,8 v 52.21 c 0,6.645 -5.054,9.255 -6.603,9.896 -1.55,0.64 -6.969,2.368 -11.666,-2.329 L 49.019,396.716 c -2.012,-2.011 -3.12,-4.698 -3.119,-7.566 0,-2.868 1.107,-5.556 3.119,-7.567 l 89.476,-89.476 c 2.486,-2.487 5.174,-3.173 7.384,-3.173 1.965,0 3.552,0.542 4.281,0.845 1.549,0.642 6.603,3.251 6.603,9.896 v 52.21 c 0,4.418 3.582,8 8,8 h 237.492 c 4.418,0 8,-3.582 8,-8 v -68.426 c 0,-16.136 13.128,-29.263 29.265,-29.263 16.137,0 29.264,13.127 29.264,29.264 v 105.691 z"
       id="path186" />
    <path
       d="M 476.977,106.714 387.502,17.238 C 379.716,9.451 368.565,7.229 358.399,11.441 348.234,15.651 341.92,25.108 341.92,36.119 v 44.21 c 0,0 -266.756,0 -266.756,0 -24.958,0 -45.264,20.306 -45.264,45.264 v 105.69 c 0,24.958 20.305,45.264 45.263,45.264 24.958,0 45.265,-20.305 45.265,-45.263 V 170.857 H 341.92 v 44.211 c 0,11.012 6.315,20.468 16.48,24.678 10.165,4.21 21.316,1.988 29.102,-5.797 l 89.476,-89.476 c 5.033,-5.034 7.805,-11.739 7.805,-18.881 0,-7.142 -2.772,-13.848 -7.806,-18.88 z m -11.313,26.448 -89.475,89.476 c -4.698,4.699 -10.117,2.97 -11.666,2.328 -1.549,-0.642 -6.604,-3.251 -6.604,-9.896 v -52.211 c 0,-2.122 -0.842,-4.157 -2.343,-5.657 -1.5,-1.5 -3.535,-2.343 -5.657,-2.343 H 112.428 c -4.418,0 -8,3.582 -8,8 v 68.427 c 0,16.136 -13.128,29.263 -29.265,29.263 -16.137,0 -29.263,-13.128 -29.263,-29.264 V 125.594 C 45.9,109.458 59.027,96.33 75.164,96.33 H 349.92 c 2.122,0 4.157,-0.843 5.657,-2.343 1.5,-1.5 2.343,-3.535 2.343,-5.657 V 36.119 c 0,-6.645 5.053,-9.254 6.602,-9.896 1.549,-0.642 6.968,-2.37 11.666,2.329 l 89.476,89.476 c 2.011,2.011 3.119,4.698 3.119,7.566 0,2.869 -1.108,5.556 -3.119,7.568 z"
       id="path188" />
  </g>
</svg>
