<?xml version="1.0" encoding="utf-8"?>
<!-- Generator: Adobe Illustrator 16.0.0, SVG Export Plug-In . SVG Version: 6.00 Build 0)  -->
<!DOCTYPE svg PUBLIC "-//W3C//DTD SVG 1.1//EN" "http://www.w3.org/Graphics/SVG/1.1/DTD/svg11.dtd">
<svg version="1.1"
	 id="svg2" xmlns:sodipodi="http://sodipodi.sourceforge.net/DTD/sodipodi-0.dtd" xmlns:rdf="http://www.w3.org/1999/02/22-rdf-syntax-ns#" xmlns:dc="http://purl.org/dc/elements/1.1/" xmlns:cc="http://creativecommons.org/ns#" xmlns:svg="http://www.w3.org/2000/svg" xmlns:inkscape="http://www.inkscape.org/namespaces/inkscape" sodipodi:docname="barretr-House.svg" sodipodi:version="0.32" inkscape:version="0.48.4 r9939" inkscape:export-ydpi="90" inkscape:export-xdpi="90" inkscape:export-filename="/home/barret/Desktop/house.png" inkscape:output_extension="org.inkscape.output.svg.inkscape" sodipodi:modified="TRUE"
	 xmlns="http://www.w3.org/2000/svg" xmlns:xlink="http://www.w3.org/1999/xlink" x="0px" y="0px" width="805.271px"
	 height="532.573px" viewBox="5.302 -0.022 805.271 532.573" enable-background="new 5.302 -0.022 805.271 532.573"
	 xml:space="preserve">
<path fill="#595959" stroke="#383838" stroke-width="4.6705" d="M806.603,488.791L648.414,23.582l-0.096-0.273
	c-4.525-12.558-16.467-20.996-29.715-20.996h-89.417c-13.593,0-25.268,8.272-29.745,21.073l-19.184,56.418H325.075V33.738
	c0-17.326-14.093-31.422-31.415-31.422h-44.28c-17.323,0-31.416,14.096-31.416,31.422v46.069H39.056
	c-17.324,0-31.418,14.092-31.418,31.415v44.282c0,17.323,14.094,31.417,31.418,31.417h319.041l-1.085,2.501
	c-17.13,39.503-45.179,79.902-83.366,120.075l-1.293,1.36l-1.3-1.359c-17.959-18.77-34.213-38.295-48.31-58.033l-0.166-0.229
	c-0.031-0.044-0.063-0.088-0.095-0.132l-0.028-0.038c-5.901-8.095-15.417-12.913-25.556-12.913c-5.653,0-11.208,1.522-16.023,4.376
	l-20.196,11.892l-18.029,10.818l-0.349,0.214c-7.36,4.488-12.413,11.632-14.247,20.158c-1.848,8.584-0.107,17.244,4.899,24.384
	c17.021,24.272,36.519,48.136,57.953,70.927l1.346,1.433l-1.554,1.208c-22.374,17.403-46.727,34.198-72.338,49.892
	c-14.696,8.938-19.551,27.585-11.072,42.418l21.844,38.437l0.068,0.119c5.731,9.887,15.94,15.789,27.309,15.789
	c5.719,0,11.361-1.572,16.317-4.546l0.141-0.086c33.387-20.505,66.261-43.631,97.71-68.734l1.121-0.895l1.119,0.903
	c20.611,16.642,43.329,33.24,67.613,49.405c0.962,3.879,2.663,7.577,5.048,10.886c5.975,8.304,15.235,13.066,25.408,13.066h63.007
	c13.689,0,26.022-9.309,29.99-22.636l25.412-88.796h168.161l26.223,88.984c3.9,13.2,16.242,22.431,30.032,22.446H776.8
	c10.24,0,19.521-4.735,25.446-12.971C808.237,508.947,809.825,498.575,806.603,488.791z M394.522,331.945l-22.359,65.757
	c-6.254-4.541-12.598-9.262-18.985-14.127l-1.572-1.198l1.35-1.445C368.012,364.797,381.901,348.426,394.522,331.945z
	 M571.555,121.621l0.275-1.353h4.13l0.274,1.345c0.117,0.577,11.852,58.103,21.435,91.24l30.61,105.302H518.952l31.16-105.266
	l0.029-0.098C559.458,180.56,571.058,124.048,571.555,121.621z"/>
<linearGradient id="SVGID_1_" gradientUnits="userSpaceOnUse" x1="23.6377" y1="266.2649" x2="792.2212" y2="266.2649">
	<stop  offset="0" style="stop-color:#9EA4B3"/>
	<stop  offset="1" style="stop-color:#C7C9D0"/>
</linearGradient>
<path fill="url(#SVGID_1_)" d="M791.406,493.795L633.265,28.733c-2.213-6.142-8.23-10.419-14.662-10.419h-89.417
	c-6.801,0-12.407,3.966-14.642,10.355l-22.828,67.136H326.865h-17.79v-17.79V33.738c0-8.503-6.914-15.422-15.415-15.422h-44.28
	c-8.502,0-15.416,6.919-15.416,15.422v44.279v17.79h-17.792H39.056c-8.503,0-15.418,6.917-15.418,15.415v44.282
	c0,8.501,6.916,15.417,15.418,15.417H355.37h27.103l-10.78,24.867c-17.88,41.231-46.965,83.195-86.451,124.734l-12.854,13.519
	l-12.895-13.481c-18.488-19.323-35.232-39.441-49.77-59.795l-0.031-0.039l-0.029-0.043c-2.883-4.086-7.654-6.529-12.764-6.529
	c-2.786,0-5.517,0.748-7.905,2.164l-20.196,11.892l-17.915,10.75l-0.038,0.024l-0.037,0.024c-3.675,2.178-6.198,5.72-7.112,9.971
	c-0.899,4.179-0.059,8.384,2.358,11.83c16.581,23.646,35.592,46.912,56.508,69.152l13.388,14.235l-15.427,11.995
	c-22.82,17.751-47.668,34.892-73.848,50.933c-7.264,4.418-9.642,13.554-5.476,20.843l21.844,38.437
	c2.838,4.896,7.865,7.813,13.467,7.813c2.813,0,5.611-0.781,8.085-2.266c32.824-20.16,65.162-42.908,96.102-67.604l11.159-8.908
	l11.113,8.972c22.104,17.847,46.492,35.507,72.723,52.692c-0.394,3.758,0.586,7.526,2.876,10.704c2.933,4.076,7.464,6.41,12.42,6.41
	h63.007c6.672,0,12.69-4.602,14.655-11.201l25.015-87.408l3.669-12.822h13.335h165.631h13.224l3.74,12.689l25.862,87.762
	c1.907,6.455,7.947,10.972,14.688,10.979H776.8c6.883,0,10.77-3.968,12.474-6.336C792.233,503.781,793.004,498.65,791.406,493.795z
	 M380.407,423.157c-12.012-8.3-24.265-17.212-36.925-26.855l-15.641-11.914l13.416-14.374c28.374-30.4,52.451-61.605,71.561-92.748
	c19.25-31.364,33.563-62.84,42.541-93.548l3.739-12.799h7.077L380.407,423.157z M626.031,334.155H521.207h-23.68l6.724-22.706
	l30.52-103.102c9.32-32.241,20.99-89.35,21.107-89.922l2.886-14.157h14.446h1.374h14.444l2.886,14.155
	c0.116,0.571,11.804,57.747,21.12,89.963l29.983,103.145l6.577,22.623H626.031z"/>
<linearGradient id="SVGID_2_" gradientUnits="userSpaceOnUse" x1="210.8921" y1="-94.1355" x2="485.4051" y2="345.1772">
	<stop  offset="0" style="stop-color:#FFFFFF"/>
	<stop  offset="1" style="stop-color:#FFFFFF;stop-opacity:0"/>
</linearGradient>
<path fill="url(#SVGID_2_)" d="M702.372,231.962c-27.503-1.995-55.303-2.93-83.28-2.736l-6.058-20.84
	c-9.316-32.216-21.004-89.392-21.12-89.963l-2.886-14.155h-14.444h-1.374h-14.446l-2.886,14.157
	c-0.117,0.572-11.787,57.681-21.107,89.922l-7.561,25.542c-28.841,2.735-57.717,6.696-86.494,11.905l25.46-74.875h-7.077
	l-3.739,12.799c-6.178,21.13-14.882,42.625-25.983,64.196c-35.024,6.751-69.873,15.376-104.304,25.967
	c19.809-26.129,35.415-52.255,46.62-78.094l10.78-24.867H355.37H39.056c-8.503,0-15.418-6.916-15.418-15.417v-44.282
	c0-8.498,6.916-15.415,15.418-15.415h177.115h17.792v-17.79V33.738c0-8.503,6.914-15.422,15.416-15.422h44.28
	c8.501,0,15.415,6.919,15.415,15.422v44.277v17.79h17.79h164.852l22.828-67.136c2.234-6.389,7.841-10.355,14.642-10.355h89.417
	c6.432,0,12.449,4.278,14.662,10.419L702.372,231.962z M209.722,260.764l-0.031-0.039l-0.029-0.043
	c-2.883-4.086-7.654-6.529-12.764-6.529c-2.786,0-5.517,0.748-7.905,2.164l-20.196,11.892l-17.915,10.75l-0.038,0.024l-0.037,0.024
	c-3.675,2.178-6.198,5.72-7.112,9.971c-0.899,4.179-0.059,8.384,2.358,11.83c8.244,11.757,17.09,23.42,26.471,34.909
	c23.271-11.933,46.944-22.805,70.934-32.642C231.239,289.214,219.926,275.051,209.722,260.764z"/>
<path fill="#595959" stroke="#383838" stroke-width="4.6705" d="M211.817,186.239h-0.076c-4.281,0-8.449,1.739-11.436,4.771
	c-2.938,2.982-4.611,7.095-4.604,11.301v0.033v128.53v0.074c0,4.282,1.738,8.451,4.77,11.438c2.951,2.917,7.064,4.603,11.264,4.603
	h0.07l160.188,0.001v24.313c0,13.22,3.309,24.584,9.57,32.863c6.992,9.25,17.301,14.344,29.025,14.346l0,0l0,0l0,0
	c9.816,0,20.012-3.479,30.303-10.342l0.275-0.185l0.268-0.194l176.662-129.426l16.516-12.101l-16.516-12.1L441.437,124.74
	l-0.269-0.195l-0.276-0.186c-10.292-6.859-20.487-10.339-30.3-10.339c-11.727,0-22.033,5.095-29.027,14.345
	c-6.262,8.279-9.57,19.646-9.57,32.866v24.309L211.817,186.239z"/>
<linearGradient id="SVGID_3_" gradientUnits="userSpaceOnUse" x1="261.2422" y1="241.7122" x2="535.7339" y2="241.7122" gradientTransform="matrix(-4.371139e-008 1 1 4.371139e-008 168.2542 -132.2224)">
	<stop  offset="0" style="stop-color:#76E2F8"/>
	<stop  offset="1" style="stop-color:#4BB9EC"/>
</linearGradient>
<path fill="url(#SVGID_3_)" d="M386.993,200.537V161.23c0-20.57,9.559-32.21,23.6-32.21c6.525,0,14.023,2.519,21.979,7.82
	l176.657,129.425L432.571,395.691c-7.955,5.305-15.451,7.82-21.979,7.82c-14.041-0.002-23.6-11.645-23.6-32.209V331.99H211.807
	h-0.029h-0.035c0,0-0.002,0-0.004,0c-0.283,0-0.574-0.128-0.74-0.292c-0.188-0.184-0.295-0.459-0.295-0.746v-0.034v-0.04V202.345
	v-0.029v-0.034c-0.002-0.285,0.127-0.58,0.293-0.746c0.184-0.187,0.459-0.295,0.746-0.295h0.035h0.039L386.993,200.537z"/>
<linearGradient id="SVGID_4_" gradientUnits="userSpaceOnUse" x1="286.1001" y1="123.2039" x2="394.067" y2="295.987">
	<stop  offset="0" style="stop-color:#FFFFFF"/>
	<stop  offset="1" style="stop-color:#FFFFFF;stop-opacity:0"/>
</linearGradient>
<path fill="url(#SVGID_4_)" d="M538.561,214.491L432.572,136.84c-7.956-5.301-15.454-7.82-21.979-7.82
	c-14.041,0-23.6,11.64-23.6,32.21v39.308l-170.973,0.687v0.172h-4.809c-0.075,0.043-0.156,0.08-0.215,0.14
	c-0.166,0.166-0.295,0.461-0.293,0.746v0.034v0.029v112.933C312.782,256.236,426.167,224.002,538.561,214.491z"/>
</svg>
