<svg id="Capa_1" enable-background="new 0 0 512 512" height="512" viewBox="0 0 512 512" width="512" xmlns="http://www.w3.org/2000/svg"><g><g id="Magic_Wand_1_"><g><path d="m272.762 111.973-42.422-42.437c-5.859-5.859-5.859-15.352 0-21.211s15.352-5.859 21.211 0l42.422 42.437c5.859 5.859 5.859 15.352 0 21.211-5.86 5.859-15.352 5.859-21.211 0z" fill="#fd3"/></g><g><path d="m442.449 281.675-42.422-42.437c-5.859-5.859-5.859-15.352 0-21.211s15.352-5.859 21.211 0l42.422 42.437c5.859 5.859 5.859 15.352 0 21.211s-15.351 5.859-21.211 0z" fill="#fb3"/></g><g><path d="m347 330c-8.291 0-15-6.709-15-15v-30c0-8.291 6.709-15 15-15s15 6.709 15 15v30c0 8.291-6.709 15-15 15z" fill="#fb3"/></g><g><path d="m347 60c-8.291 0-15-6.709-15-15v-30c0-8.291 6.709-15 15-15s15 6.709 15 15v30c0 8.291-6.709 15-15 15z" fill="#fd3"/></g><g><path d="m497 180h-30c-8.291 0-15-6.709-15-15s6.709-15 15-15h30c8.291 0 15 6.709 15 15s-6.709 15-15 15z" fill="#fb3"/></g><g><path d="m227 180h-30c-8.291 0-15-6.709-15-15s6.709-15 15-15h30c8.291 0 15 6.709 15 15s-6.709 15-15 15z" fill="#fd3"/></g><path d="m389.299 144-10.649-10.65-10.65-10.651c-5.7-5.999-15.3-5.999-21 0l-53.101 52.8-8.315 50.916-.108.659 51.024-8.976 52.799-53.098c6.001-5.7 6.001-15.3 0-21z" fill="#fd3"/><path d="m336.501 218.099 52.798-53.099c6-5.7 6-15.3 0-21l-10.649-10.65-93.065 93.065-.108.659z" fill="#fb3"/></g><g><path d="m463.666 48.334c-.002-.002-.004-.007-.005-.009-5.859-5.859-15.352-5.859-21.211 0l-42.422 42.437c-5.859 5.859-5.859 15.352 0 21.211s15.352 5.859 21.211 0l42.422-42.437c5.857-5.857 5.859-15.34.005-21.202z" fill="#fd3"/><path d="m421.238 111.973 42.422-42.437c5.858-5.858 5.859-15.341.005-21.202l-63.638 63.638c5.86 5.86 15.352 5.86 21.211.001z" fill="#fb3"/><path d="m315.2 196.8-21.301-21.301-289.624 289.625c-5.7 6-5.7 15.3 0 21.301l10.651 10.649 10.649 10.651c5.999 5.7 15.298 5.7 21.298 0l289.627-289.626z" fill="#3d6dcc"/><path d="m46.874 507.725 289.627-289.626-21.301-21.299-300.274 300.274 10.649 10.651c5.999 5.7 15.299 5.7 21.299 0z" fill="#2e3e99"/></g></g></svg>