<?xml version="1.0" encoding="UTF-8" standalone="no"?>
<!-- Generator: Adobe Illustrator 19.0.0, SVG Export Plug-In . SVG Version: 6.00 Build 0)  -->

<svg
   version="1.1"
   id="Capa_1"
   x="0px"
   y="0px"
   viewBox="0 0 512 512"
   style="enable-background:new 0 0 512 512;"
   xml:space="preserve"
   sodipodi:docname="two-arrows.svg"
   inkscape:version="1.1 (c4e8f9e, 2021-05-24)"
   xmlns:inkscape="http://www.inkscape.org/namespaces/inkscape"
   xmlns:sodipodi="http://sodipodi.sourceforge.net/DTD/sodipodi-0.dtd"
   xmlns="http://www.w3.org/2000/svg"
   xmlns:svg="http://www.w3.org/2000/svg"><defs
   id="defs50" /><sodipodi:namedview
   id="namedview48"
   pagecolor="#ffffff"
   bordercolor="#666666"
   borderopacity="1.0"
   inkscape:pageshadow="2"
   inkscape:pageopacity="0.0"
   inkscape:pagecheckerboard="0"
   showgrid="false"
   inkscape:zoom="1.4707031"
   inkscape:cx="255.66003"
   inkscape:cy="255.66003"
   inkscape:window-width="1129"
   inkscape:window-height="1158"
   inkscape:window-x="3603"
   inkscape:window-y="243"
   inkscape:window-maximized="0"
   inkscape:current-layer="Capa_1" />
<path
   style="fill:#32d736"
   d="M 331.365,117.072 379.675,68.763 336.467,25.555 C 326.866,16.254 333.766,0.051 346.969,0.051 h 150.029 c 8.403,0 15.003,6.6 15.003,15.002 v 150.029 c 0,13.203 -16.202,20.103 -25.504,10.501 -1.201,-0.899 -20.704,-20.103 -40.809,-39.608 l -3,-3 -47.71,47.708 c -19.804,20.105 -30.906,47.21 -30.906,75.416 0,46.208 24.305,71.913 96.32,142.428 13.502,13.203 28.805,28.205 45.908,45.309 6.001,6.001 5.701,15.303 0,21.303 -0.3,0.3 -41.108,41.108 -42.307,42.309 -6.001,6.001 -15.303,6.001 -21.305,0 C 427.985,492.745 414.182,479.243 401.28,466.64 319.365,386.524 274.055,340.416 274.055,256.099 c 0,-52.208 20.404,-102.119 57.31,-139.027 z"
   id="path9" />
<path
   style="fill:#fd003a"
   d="m 69.614,132.976 -3,3 C 46.511,155.481 26.705,174.684 25.806,175.584 16.204,185.186 0,178.286 0,165.083 V 15.053 C 0,6.65 6.902,0.05 15.003,0.05 h 150.03 c 13.503,0 20.105,16.202 10.803,25.504 l -43.208,43.208 48.309,48.309 c 36.606,36.908 57.012,86.818 57.012,139.028 0,84.316 -45.009,130.424 -127.227,210.541 -12.601,12.601 -26.403,26.105 -41.406,40.808 -5.701,6.001 -15.303,6.001 -21.004,0 L 5.703,465.139 c -5.701,-6 -5.701,-15.602 0,-21.303 17.103,-17.103 32.407,-32.106 46.21,-45.309 72.013,-70.515 96.019,-96.219 96.019,-142.428 0,-28.205 -10.803,-55.311 -30.607,-75.416 z"
   id="path11" />
<path
   style="fill:#10bb67"
   d="m 364.072,256.1 h -90.017 c 0,84.316 45.309,130.424 127.225,210.541 12.902,12.601 26.705,26.105 41.408,40.808 6.001,6.001 15.303,6.001 21.305,0 1.199,-1.201 42.007,-42.008 42.307,-42.309 5.701,-6 6.001,-15.301 0,-21.303 -17.103,-17.103 -32.407,-32.106 -45.908,-45.309 -72.015,-70.515 -96.32,-96.219 -96.32,-142.428 z"
   id="path13" />
<path
   style="fill:#e50027"
   d="m 5.702,465.139 42.609,42.309 c 5.701,6.001 15.303,6.001 21.004,0 C 84.318,492.745 98.12,479.243 110.721,466.64 192.939,386.524 237.948,340.416 237.948,256.1 h -90.017 c 0,46.208 -24.006,71.913 -96.019,142.428 -13.804,13.203 -29.107,28.205 -46.21,45.309 -5.701,5.701 -5.701,15.303 0,21.302 z"
   id="path15" />
<g
   id="g17"
   transform="matrix(-1,0,0,1,512.001,0)">
</g>
<g
   id="g19"
   transform="matrix(-1,0,0,1,512.001,0)">
</g>
<g
   id="g21"
   transform="matrix(-1,0,0,1,512.001,0)">
</g>
<g
   id="g23"
   transform="matrix(-1,0,0,1,512.001,0)">
</g>
<g
   id="g25"
   transform="matrix(-1,0,0,1,512.001,0)">
</g>
<g
   id="g27"
   transform="matrix(-1,0,0,1,512.001,0)">
</g>
<g
   id="g29"
   transform="matrix(-1,0,0,1,512.001,0)">
</g>
<g
   id="g31"
   transform="matrix(-1,0,0,1,512.001,0)">
</g>
<g
   id="g33"
   transform="matrix(-1,0,0,1,512.001,0)">
</g>
<g
   id="g35"
   transform="matrix(-1,0,0,1,512.001,0)">
</g>
<g
   id="g37"
   transform="matrix(-1,0,0,1,512.001,0)">
</g>
<g
   id="g39"
   transform="matrix(-1,0,0,1,512.001,0)">
</g>
<g
   id="g41"
   transform="matrix(-1,0,0,1,512.001,0)">
</g>
<g
   id="g43"
   transform="matrix(-1,0,0,1,512.001,0)">
</g>
<g
   id="g45"
   transform="matrix(-1,0,0,1,512.001,0)">
</g>
</svg>
