<?xml version="1.0" encoding="utf-8"?>
<!-- Generator: Adobe Illustrator 16.0.0, SVG Export Plug-In . SVG Version: 6.00 Build 0)  -->
<!DOCTYPE svg PUBLIC "-//W3C//DTD SVG 1.1//EN" "http://www.w3.org/Graphics/SVG/1.1/DTD/svg11.dtd">
<svg version="1.1" id="Capa_1" xmlns="http://www.w3.org/2000/svg" xmlns:xlink="http://www.w3.org/1999/xlink" x="0px" y="0px"
	 width="531.552px" height="531.529px" viewBox="-35.43 -19.529 531.552 531.529"
	 enable-background="new -35.43 -19.529 531.552 531.529" xml:space="preserve">
<path fill="#595959" stroke="#383838" stroke-width="4.6705" d="M192.542-17.193L192.542-17.193L192.542-17.193
	c-9.817,0-20.012,3.479-30.302,10.341l-0.276,0.184l-0.267,0.196L-14.962,122.953l-16.516,12.1l16.516,12.1l176.659,129.424
	l0.268,0.196l0.277,0.185c10.292,6.86,20.486,10.339,30.299,10.339c11.726,0,22.035-5.095,29.029-14.345
	c6.26-8.279,9.569-19.645,9.569-32.866v-24.308h34.975c36.707,0,66.572,29.864,66.572,66.573c0,36.708-29.865,66.572-66.572,66.572
	H108.7h-0.075c-4.282,0-8.45,1.739-11.436,4.771c-2.938,2.983-4.612,7.095-4.603,11.301v0.033v128.531v0.075
	c0,4.282,1.739,8.451,4.771,11.436c2.951,2.917,7.064,4.603,11.263,4.603h0.07h157.423c30.729,0,60.547-6.021,88.625-17.897
	c27.113-11.468,51.459-27.882,72.363-48.786s37.318-45.252,48.787-72.364c11.875-28.079,17.896-57.896,17.896-88.626
	c0-30.729-6.021-60.547-17.896-88.625c-11.469-27.113-27.883-51.459-48.787-72.364s-45.25-37.318-72.363-48.786
	c-28.078-11.876-57.896-17.898-88.625-17.898h-34.975V30.016c0-13.22-3.309-24.584-9.57-32.864
	C214.575-12.098,204.266-17.192,192.542-17.193L192.542-17.193z"/>
<path fill="#E8552D" d="M192.541-2.193c14.04,0.001,23.599,11.643,23.599,32.209v39.311h49.975
	c117.455,0,212.672,95.217,212.672,212.673c0,117.457-95.217,212.674-212.672,212.674H108.692h-0.03h-0.035
	c-0.001,0-0.003,0-0.005,0c-0.282,0-0.574-0.128-0.74-0.292c-0.187-0.184-0.294-0.459-0.294-0.746v-0.035v-0.04V365.029v-0.03
	v-0.035c-0.002-0.285,0.127-0.579,0.292-0.745c0.184-0.187,0.459-0.295,0.746-0.295h0.035h0.04h157.414
	c45.051,0,81.572-36.521,81.572-81.572c0-45.052-36.521-81.573-81.572-81.573h-49.975v39.308c0,20.57-9.558,32.21-23.599,32.21
	c-6.527,0-14.024-2.518-21.979-7.82L-6.097,135.053L170.561,5.627C178.516,0.323,186.013-2.193,192.541-2.193"/>
<linearGradient id="SVGID_1_" gradientUnits="userSpaceOnUse" x1="119.8508" y1="-7.0938" x2="272.4642" y2="237.1387">
	<stop  offset="0" style="stop-color:#FFFFFF"/>
	<stop  offset="1" style="stop-color:#FFFFFF;stop-opacity:0"/>
</linearGradient>
<path fill="url(#SVGID_1_)" d="M432.513,149.565c-38.965-48.894-99.018-80.238-166.398-80.238h-49.975V30.016
	c0-20.566-9.559-32.208-23.599-32.209c-6.527,0-14.024,2.516-21.979,7.821L-6.097,135.053l118.771,87.014
	C213.933,174.201,325.536,147.702,432.513,149.565z"/>
</svg>
