<?xml version="1.0" encoding="UTF-8" standalone="no"?>
<svg
   id="Layer_1"
   viewBox="0 0 48 43"
   data-name="Layer 1"
   version="1.1"
   sodipodi:docname="robot.svg"
   width="48"
   height="43"
   inkscape:version="1.2-beta (1b65182c, 2022-04-05)"
   xmlns:inkscape="http://www.inkscape.org/namespaces/inkscape"
   xmlns:sodipodi="http://sodipodi.sourceforge.net/DTD/sodipodi-0.dtd"
   xmlns="http://www.w3.org/2000/svg"
   xmlns:svg="http://www.w3.org/2000/svg">
  <defs
     id="defs215" />
  <sodipodi:namedview
     id="namedview213"
     pagecolor="#ffffff"
     bordercolor="#000000"
     borderopacity="0.25"
     inkscape:pageshadow="2"
     inkscape:pageopacity="0.0"
     inkscape:pagecheckerboard="0"
     inkscape:deskcolor="#d1d1d1"
     showgrid="false"
     inkscape:zoom="4.9166667"
     inkscape:cx="14.949153"
     inkscape:cy="21.966102"
     inkscape:window-width="1344"
     inkscape:window-height="456"
     inkscape:window-x="0"
     inkscape:window-y="25"
     inkscape:window-maximized="0"
     inkscape:current-layer="Layer_1" />
  <rect
     fill="#eff3f9"
     height="29"
     rx="4"
     width="34"
     x="7"
     y="13"
     id="rect182" />
  <path
     d="M 11,36 V 13 c -2.209,0 -4,1.791 -4,4 v 21 c 0,2.209 1.791,4 4,4 h 26 c 2.209,0 4,-1.791 4,-4 H 13 c -1.105,0 -2,-0.895 -2,-2 z"
     fill="#cfe0f3"
     id="path184" />
  <circle
     cx="18"
     cy="23"
     fill="#afb4c2"
     r="2"
     id="circle186" />
  <circle
     cx="30"
     cy="23"
     fill="#afb4c2"
     r="2"
     id="circle188" />
  <path
     d="M 45,34 H 41 V 21 h 4 c 1.105,0 2,0.895 2,2 v 9 c 0,1.105 -0.895,2 -2,2 z"
     fill="#8c94af"
     id="path190" />
  <path
     d="M 3,34 H 7 V 21 H 3 c -1.105,0 -2,0.895 -2,2 v 9 c 0,1.105 0.895,2 2,2 z"
     fill="#8c94af"
     id="path192" />
  <path
     d="m 45,30 h -4 v 4 h 4 c 1.105,0 2,-0.895 2,-2 v -4 c 0,1.105 -0.895,2 -2,2 z"
     fill="#6f7792"
     id="path194" />
  <path
     d="m 1,28 v 4 c 0,1.105 0.895,2 2,2 H 7 V 30 H 3 C 1.895,30 1,29.105 1,28 Z"
     fill="#6f7792"
     id="path196" />
  <circle
     cx="24"
     cy="4"
     fill="#ff3b65"
     r="3"
     id="circle198" />
  <path
     d="M 25.5,5 C 24.119,5 23,3.881 23,2.5 23,1.96 23.175,1.463 23.467,1.054 22.065,1.306 21,2.526 21,4 21,5.657 22.343,7 24,7 25.474,7 26.694,5.935 26.946,4.533 26.537,4.824 26.04,5 25.5,5 Z"
     fill="#d82b50"
     opacity="0.75"
     id="path200" />
  <g
     fill="#08105e"
     id="g210"
     transform="translate(0,-2)">
    <path
       d="m 21,25 c 0,-1.654 -1.346,-3 -3,-3 -1.654,0 -3,1.346 -3,3 0,1.654 1.346,3 3,3 1.654,0 3,-1.346 3,-3 z m -3,1 c -0.551,0 -1,-0.448 -1,-1 0,-0.552 0.449,-1 1,-1 0.551,0 1,0.449 1,1 0,0.551 -0.449,1 -1,1 z"
       id="path202" />
    <path
       d="m 30,22 c -1.654,0 -3,1.346 -3,3 0,1.654 1.346,3 3,3 1.654,0 3,-1.346 3,-3 0,-1.654 -1.346,-3 -3,-3 z m 0,4 c -0.551,0 -1,-0.448 -1,-1 0,-0.552 0.449,-1 1,-1 0.551,0 1,0.449 1,1 0,0.551 -0.449,1 -1,1 z"
       id="path204" />
    <path
       d="m 28.543,33.91 c -2.815,1.447 -6.271,1.447 -9.086,0 -0.492,-0.253 -1.094,-0.059 -1.347,0.433 -0.253,0.492 -0.059,1.094 0.433,1.347 1.669,0.857 3.556,1.311 5.457,1.311 1.901,0 3.788,-0.453 5.457,-1.311 0.491,-0.253 0.685,-0.855 0.433,-1.347 -0.252,-0.492 -0.855,-0.686 -1.347,-0.433 z"
       id="path206" />
    <path
       d="m 45,22 h -3 v -3 c 0,-2.757 -2.243,-5 -5,-5 H 25 V 9.858 c 1.72,-0.447 3,-2 3,-3.858 0,-2.206 -1.794,-4 -4,-4 -2.206,0 -4,1.794 -4,4 0,1.858 1.28,3.411 3,3.858 V 14 H 11 c -2.757,0 -5,2.243 -5,5 v 3 H 3 c -1.654,0 -3,1.346 -3,3 v 9 c 0,1.654 1.346,3 3,3 h 3 v 3 c 0,2.757 2.243,5 5,5 h 26 c 2.757,0 5,-2.243 5,-5 v -3 h 3 c 1.654,0 3,-1.346 3,-3 v -9 c 0,-1.654 -1.346,-3 -3,-3 z M 22,6 c 0,-1.103 0.897,-2 2,-2 1.103,0 2,0.897 2,2 0,1.103 -0.897,2 -2,2 C 22.897,8 22,7.103 22,6 Z M 3,35 C 2.449,35 2,34.552 2,34 v -9 c 0,-0.551 0.449,-1 1,-1 h 3 v 11 z m 37,5 c 0,1.654 -1.346,3 -3,3 H 11 C 9.346,43 8,41.654 8,40 V 19 c 0,-1.654 1.346,-3 3,-3 h 26 c 1.654,0 3,1.346 3,3 z m 6,-6 c 0,0.552 -0.449,1 -1,1 H 42 V 24 h 3 c 0.551,0 1,0.449 1,1 z"
       id="path208" />
  </g>
</svg>
