<?xml version="1.0" encoding="UTF-8" standalone="no"?>
<svg
   viewBox="-42 0 427.16797 512"
   version="1.1"
   id="svg17"
   sodipodi:docname="user.svg"
   width="427.16797"
   height="512"
   inkscape:version="1.1 (c4e8f9e, 2021-05-24)"
   xmlns:inkscape="http://www.inkscape.org/namespaces/inkscape"
   xmlns:sodipodi="http://sodipodi.sourceforge.net/DTD/sodipodi-0.dtd"
   xmlns="http://www.w3.org/2000/svg"
   xmlns:svg="http://www.w3.org/2000/svg">
  <defs
     id="defs21" />
  <sodipodi:namedview
     id="namedview19"
     pagecolor="#ffffff"
     bordercolor="#666666"
     borderopacity="1.0"
     inkscape:pageshadow="2"
     inkscape:pageopacity="0.0"
     inkscape:pagecheckerboard="0"
     showgrid="false"
     inkscape:zoom="1.4707031"
     inkscape:cx="213.50332"
     inkscape:cy="255.66003"
     inkscape:window-width="1535"
     inkscape:window-height="974"
     inkscape:window-x="0"
     inkscape:window-y="383"
     inkscape:window-maximized="0"
     inkscape:current-layer="svg17" />
  <path
     d="m 291.67187,123.30859 c 0,33.88672 -12.15234,63.21875 -36.125,87.19532 -23.97265,23.97265 -53.30859,36.125 -87.19531,36.125 h -0.0586 C 134.44921,246.61721 105.1328,234.46484 81.16015,210.50391 57.183584,186.52734 45.035146,157.19531 45.035146,123.30859 45.035146,89.433594 57.183584,60.097656 81.16015,36.125 105.12109,12.160156 134.4375,0.0117188 168.29297,0 h 0.0586 c 33.875,0 63.21094,12.152344 87.19531,36.125 23.97266,23.972656 36.125,53.308594 36.125,87.18359 z m 0,0"
     fill="#ffbb85"
     id="path9" />
  <path
     d="m 385.16797,423.94531 c 0,26.73438 -8.50391,48.37891 -25.25391,64.32031 C 343.35937,504.01953 321.46484,512 294.84375,512 H 48.3125 C 21.691406,512 -0.203125,504.01953 -16.746094,488.26562 -33.507812,472.3125 -42,450.67187 -42,423.94531 c 0,-10.28125 0.339844,-20.45312 1.019531,-30.23437 0.691407,-10 2.089844,-20.88282 4.152344,-32.36328 2.078125,-11.57422 4.75,-22.51563 7.949219,-32.51563 3.320312,-10.35156 7.8125,-20.5625 13.371094,-30.34375 5.773437,-10.15234 12.554687,-18.99609 20.15625,-26.27734 7.96875,-7.6211 17.710937,-13.74219 28.972656,-18.20313 11.222656,-4.4375 23.664062,-6.6875 36.976566,-6.6875 5.22265,0 10.28125,2.13672 20.03125,8.48828 6.10156,3.98047 13.13281,8.51172 20.89453,13.47266 6.70312,4.27344 15.78125,8.28125 27.0039,11.90234 9.86328,3.19141 19.875,4.97266 29.76563,5.28125 1.08984,0.0391 2.17969,0.0586 3.26953,0.0586 10.98437,0 22.09375,-1.80078 33.04687,-5.33985 11.22266,-3.62109 20.3125,-7.6289 27.01172,-11.90234 7.84375,-5.01172 14.875,-9.53906 20.88672,-13.46094 9.75781,-6.36328 14.8086,-8.5 20.04297,-8.5 13.30078,0 25.74219,2.25 36.97266,6.6875 11.26172,4.46094 21.0039,10.59375 28.96484,18.20313 7.61328,7.28125 14.39453,16.125 20.16406,26.27734 5.5625,9.78906 10.0625,19.99219 13.3711,30.33203 3.20312,10.01172 5.88281,20.95313 7.96093,32.53516 2.05079,11.49219 3.45313,22.375 4.14063,32.34766 0.69141,9.75 1.03125,19.92187 1.04297,30.24218 z m 0,0"
     fill="#6aa9ff"
     id="path11" />
  <path
     d="m 168.35156,246.62891 h -0.0586 V 0 h 0.0586 c 33.875,0 63.21094,12.152344 87.19531,36.125 23.97266,23.972656 36.125,53.308594 36.125,87.18359 0,33.88672 -12.15234,63.21875 -36.125,87.19532 -23.97265,23.97265 -53.30859,36.125 -87.19531,36.125 z m 0,0"
     fill="#f5a86c"
     id="path13" />
  <path
     d="m 385.16797,423.94531 c 0,26.73438 -8.50391,48.37891 -25.25391,64.32031 C 343.35937,504.01953 321.46484,512 294.84375,512 H 168.29297 V 286.46484 c 1.08984,0.0391 2.17969,0.0586 3.26953,0.0586 10.98437,0 22.09375,-1.80078 33.04687,-5.33985 11.22266,-3.62109 20.3125,-7.6289 27.01172,-11.90234 7.84375,-5.01172 14.875,-9.53906 20.88672,-13.46094 9.75781,-6.36328 14.8086,-8.5 20.04297,-8.5 13.30078,0 25.74219,2.25 36.97266,6.6875 11.26172,4.46094 21.0039,10.59375 28.96484,18.20313 7.61328,7.28125 14.39453,16.125 20.16406,26.27734 5.5625,9.78906 10.0625,19.99219 13.3711,30.33203 3.20312,10.01172 5.88281,20.95313 7.96093,32.53516 2.05079,11.49219 3.45313,22.375 4.14063,32.34765 0.69141,9.75 1.03125,19.92188 1.04297,30.24219 z m 0,0"
     fill="#2682ff"
     id="path15" />
</svg>
