<?xml version="1.0" encoding="UTF-8" standalone="no"?>
<svg
   id="Capa_1"
   enable-background="new 0 0 512 512"
   height="441.30399"
   viewBox="0 0 512 441.30399"
   width="512"
   version="1.1"
   sodipodi:docname="blocks.svg"
   inkscape:version="1.2-beta (1b65182c, 2022-04-05)"
   xmlns:inkscape="http://www.inkscape.org/namespaces/inkscape"
   xmlns:sodipodi="http://sodipodi.sourceforge.net/DTD/sodipodi-0.dtd"
   xmlns="http://www.w3.org/2000/svg"
   xmlns:svg="http://www.w3.org/2000/svg">
  <defs
     id="defs207" />
  <sodipodi:namedview
     id="namedview205"
     pagecolor="#ffffff"
     bordercolor="#000000"
     borderopacity="0.25"
     inkscape:pageshadow="2"
     inkscape:pageopacity="0.0"
     inkscape:pagecheckerboard="0"
     inkscape:deskcolor="#d1d1d1"
     showgrid="false"
     inkscape:zoom="0.4609375"
     inkscape:cx="159.45763"
     inkscape:cy="197.42373"
     inkscape:window-width="1344"
     inkscape:window-height="456"
     inkscape:window-x="0"
     inkscape:window-y="25"
     inkscape:window-maximized="0"
     inkscape:current-layer="Capa_1" />
  <g
     id="g202"
     transform="translate(0,-57.563)">
    <g
       id="g194">
      <g
         id="g184">
        <path
           d="M 133,204.666 H 10 V 341.769 H 133 256 V 204.666 Z"
           fill="#ff7e96"
           id="path182" />
      </g>
      <g
         id="g188">
        <path
           d="M 133,67.564 V 204.666 H 256 379 V 67.564 Z"
           fill="#b2daff"
           id="path186" />
      </g>
      <g
         id="g192">
        <path
           d="M 133,341.769 H 502 V 488.866 H 133 Z"
           fill="#ffce62"
           id="path190" />
      </g>
    </g>
    <g
       id="g200">
      <path
         d="m 329.28,485.04 c -1.638,-3.935 -5.702,-6.463 -9.964,-6.145 -4.171,0.312 -7.773,3.273 -8.892,7.301 -2.364,8.507 7.171,15.781 14.763,11.244 4.195,-2.506 5.973,-7.891 4.093,-12.4 z"
         id="path196" />
      <path
         d="M 502,331.77 H 266 V 214.666 h 113 c 5.522,0 10,-4.478 10,-10 V 67.563 c 0,-5.522 -4.478,-10 -10,-10 H 133 c -5.523,0 -10,4.478 -10,10 V 194.666 H 10 c -5.523,0 -10,4.478 -10,10 V 341.77 c 0,5.522 4.477,10 10,10 h 113 v 137.097 c 0,5.522 4.477,10 10,10 h 142.564 c 5.522,0 10,-4.478 10,-10 0,-5.522 -4.478,-10 -10,-10 H 143 V 351.77 H 492 V 478.867 H 364.026 c -5.522,0 -10,4.478 -10,10 0,5.522 4.478,10 10,10 H 502 c 5.522,0 10,-4.478 10,-10 V 341.77 c 0,-5.523 -4.478,-10 -10,-10 z M 143,77.563 H 369 V 194.666 H 143 Z M 20,331.77 V 214.666 H 246 V 331.77 Z"
         id="path198" />
    </g>
  </g>
</svg>
