<?xml version="1.0" encoding="UTF-8" standalone="no"?>
<svg
   height="359.97223"
   viewBox="0 0 76.004997 89.993057"
   width="304.01999"
   version="1.1"
   id="svg8"
   sodipodi:docname="favorite.svg"
   inkscape:version="1.2-beta (1b65182c, 2022-04-05)"
   xmlns:inkscape="http://www.inkscape.org/namespaces/inkscape"
   xmlns:sodipodi="http://sodipodi.sourceforge.net/DTD/sodipodi-0.dtd"
   xmlns="http://www.w3.org/2000/svg"
   xmlns:svg="http://www.w3.org/2000/svg">
  <defs
     id="defs12" />
  <sodipodi:namedview
     id="namedview10"
     pagecolor="#ffffff"
     bordercolor="#000000"
     borderopacity="0.25"
     inkscape:pageshadow="2"
     inkscape:pageopacity="0.0"
     inkscape:pagecheckerboard="0"
     inkscape:deskcolor="#d1d1d1"
     showgrid="false"
     inkscape:zoom="0.4609375"
     inkscape:cx="151.86441"
     inkscape:cy="180.0678"
     inkscape:window-width="1344"
     inkscape:window-height="430"
     inkscape:window-x="0"
     inkscape:window-y="38"
     inkscape:window-maximized="0"
     inkscape:current-layer="svg8" />
  <g
     id="g6"
     transform="translate(-26,-19)">
    <path
       d="M 34.8,108.342 61.267,94.98 a 6.069,6.069 0 0 1 5.466,0 l 26.472,13.362 a 6.066,6.066 0 0 0 8.8,-5.414 V 26 a 7,7 0 0 0 -7,-7 H 33 a 7,7 0 0 0 -7,7 v 76.927 a 6.066,6.066 0 0 0 8.8,5.415 z"
       fill="#ffb32c"
       id="path2" />
    <path
       d="m 82.534,52.985 a 1.439,1.439 0 0 0 -0.8,-2.454 L 71.121,48.989 a 1.438,1.438 0 0 1 -1.083,-0.787 l -4.748,-9.62 a 1.439,1.439 0 0 0 -2.58,0 L 57.962,48.2 a 1.438,1.438 0 0 1 -1.083,0.787 l -10.616,1.544 a 1.439,1.439 0 0 0 -0.8,2.454 l 7.682,7.488 a 1.44,1.44 0 0 1 0.413,1.274 l -1.81,10.573 a 1.438,1.438 0 0 0 2.087,1.516 l 9.5,-4.992 a 1.439,1.439 0 0 1 1.338,0 l 9.5,4.992 A 1.438,1.438 0 0 0 76.26,72.32 L 74.439,61.747 a 1.44,1.44 0 0 1 0.413,-1.274 z"
       fill="#fffcee"
       id="path4" />
  </g>
</svg>
