<?xml version="1.0" encoding="utf-8"?>
<!-- Generator: Adobe Illustrator 16.0.0, SVG Export Plug-In . SVG Version: 6.00 Build 0)  -->
<!DOCTYPE svg PUBLIC "-//W3C//DTD SVG 1.1//EN" "http://www.w3.org/Graphics/SVG/1.1/DTD/svg11.dtd">
<svg version="1.1"
	 id="svg2" xmlns:dc="http://purl.org/dc/elements/1.1/" xmlns:inkscape="http://www.inkscape.org/namespaces/inkscape" xmlns:svg="http://www.w3.org/2000/svg" xmlns:sodipodi="http://sodipodi.sourceforge.net/DTD/sodipodi-0.dtd" xmlns:rdf="http://www.w3.org/1999/02/22-rdf-syntax-ns#" xmlns:cc="http://creativecommons.org/ns#" sodipodi:modified="TRUE" inkscape:output_extension="org.inkscape.output.svg.inkscape" inkscape:export-filename="/home/barret/Desktop/house.png" inkscape:export-xdpi="90" inkscape:export-ydpi="90" inkscape:version="0.48.4 r9939" sodipodi:version="0.32" sodipodi:docname="barretr-House.svg"
	 xmlns="http://www.w3.org/2000/svg" xmlns:xlink="http://www.w3.org/1999/xlink" x="0px" y="0px" width="688.622px" height="617px"
	 viewBox="-28.373 0 688.622 617" enable-background="new -28.373 0 688.622 617" xml:space="preserve">
<path display="none" fill="#FFFFFF" stroke="#C8C8C8" stroke-width="4.6705" d="M570.232,300.632L326.42,54.94l-10.616-10.699
	L305.185,54.94L175.848,185.273v-78.445c0-2.139-0.442-4.191-1.229-6.047c-0.786-1.855-1.893-3.552-3.295-4.953
	c-1.412-1.414-3.097-2.47-4.953-3.258c-1.866-0.786-3.907-1.277-6.059-1.277h-51.386v-0.001c-2.141,0-4.144,0.492-6.011,1.278
	c-1.855,0.788-3.539,1.844-4.941,3.258c-1.412,1.401-2.521,3.097-3.305,4.953c-0.787,1.856-1.229,3.908-1.229,6.047v161.487
	l-32.064,32.312c-5.938,5.986-9.206,13.854-9.206,22.152v0.002c0,8.123,3.056,15.869,8.609,21.813
	c5.979,6.399,14.162,9.924,23.04,9.924h9.621v194.311c0,13.216,10.713,23.929,23.932,23.929h34.975h356.582
	c13.22,0,23.935-10.713,23.935-23.931v-194.31h14.925c8.879,0,17.061-3.523,23.039-9.924c5.552-5.943,8.608-13.688,8.608-21.813
	C579.435,314.483,576.17,306.615,570.232,300.632z"/>
<linearGradient id="SVGID_1_" gradientUnits="userSpaceOnUse" x1="105.5837" y1="575.5039" x2="520.7908" y2="575.5039" gradientTransform="matrix(1 0 0 1 -0.0352 -246.9258)">
	<stop  offset="0" style="stop-color:#B4BBCC"/>
	<stop  offset="1" style="stop-color:#DFE2EA"/>
</linearGradient>
<path display="none" fill="url(#SVGID_1_)" d="M315.802,96.508l-210.254,211.99v240.324c0,6.521,5.307,11.825,11.827,11.825h39.988
	h351.565c6.521,0,11.826-5.304,11.826-11.824V308.498L315.802,96.508z"/>
<path display="none" fill="#AA0000" d="M561.417,309.298L315.802,63.684L162.981,216.125l0.762-1.468v-29.384v-78.445
	c0-0.457-0.091-0.903-0.27-1.324c-0.193-0.456-0.445-0.854-0.707-1.117c-0.225-0.224-0.613-0.457-1.121-0.673
	c-0.488-0.206-0.947-0.316-1.332-0.316h-51.386c-0.354,0-0.794,0.11-1.313,0.328c-0.634,0.269-0.928,0.508-1.044,0.625l-0.035,0.036
	l-0.036,0.036c-0.25,0.25-0.494,0.633-0.685,1.081c-0.178,0.421-0.269,0.867-0.269,1.324v161.487v4.987l0.188-0.074l-36.158,36.069
	c-7.448,7.446-7.448,19.524,0,26.973c7.447,7.448,19.523,7.448,26.973,0l218.948-218.947l218.946,218.947
	c7.448,7.448,19.523,7.448,26.974,0C568.865,328.822,568.865,316.744,561.417,309.298z"/>
<linearGradient id="path4557_1_" gradientUnits="userSpaceOnUse" x1="315.9421" y1="820.998" x2="315.9421" y2="681.1289" gradientTransform="matrix(1.6783 0 0 1.6783 -214.3072 -819.0217)">
	<stop  offset="0" style="stop-color:#6A8FC6"/>
	<stop  offset="1" style="stop-color:#97B9EC"/>
</linearGradient>
<path id="path4557" sodipodi:nodetypes="cccsssccssscc" display="none" fill="url(#path4557_1_)" d="M405.492,560.648H226.384
	V339.643c0-2.15,0.441-4.189,1.228-6.047c0.787-1.857,1.894-3.54,3.295-4.941c1.414-1.412,3.098-2.507,4.952-3.293
	c1.855-0.787,3.896-1.24,6.048-1.24h148.062c2.152,0,4.192,0.453,6.049,1.24c1.854,0.786,3.538,1.881,4.939,3.293
	c1.414,1.401,2.521,3.086,3.308,4.941c0.785,1.855,1.229,3.896,1.229,6.047L405.492,560.648L405.492,560.648z"/>
<path id="path3431" sodipodi:type="arc" sodipodi:cy="568.07648" sodipodi:ry="14.285714" sodipodi:cx="403.57141" sodipodi:rx="14.285714" display="none" fill="#4C4C4C" d="
	M393.372,442.384c0,10.687-8.662,19.349-19.35,19.349c-10.686,0-19.349-8.662-19.349-19.349s8.663-19.35,19.349-19.35
	C384.709,423.034,393.372,431.697,393.372,442.384z"/>
<linearGradient id="SVGID_2_" gradientUnits="userSpaceOnUse" x1="115.2131" y1="588.0771" x2="359.0624" y2="197.8366" gradientTransform="matrix(1 0 0 -1 -0.02 616.0947)">
	<stop  offset="0" style="stop-color:#FFFFFF"/>
	<stop  offset="1" style="stop-color:#FFFFFF;stop-opacity:0"/>
</linearGradient>
<path display="none" fill="url(#SVGID_2_)" d="M105.552,446.074c132.295-111.295,301.952-150.041,457.226-135.259
	c-0.425-0.522-0.875-1.03-1.359-1.518L315.802,63.684L162.981,216.125l0.762-1.468v-29.384v-78.445c0-0.457-0.091-0.903-0.27-1.324
	c-0.193-0.456-0.445-0.854-0.707-1.117c-0.225-0.224-0.613-0.457-1.121-0.673c-0.488-0.206-0.947-0.316-1.332-0.316h-51.386
	c-0.354,0-0.794,0.11-1.313,0.328c-0.634,0.269-0.928,0.508-1.044,0.625l-0.035,0.036l-0.036,0.036
	c-0.25,0.25-0.494,0.633-0.685,1.081c-0.178,0.421-0.269,0.867-0.269,1.324v161.487v4.987l0.188-0.074l-36.158,36.069
	c-7.448,7.446-7.448,19.524,0,26.973c7.447,7.448,19.523,7.448,26.973,0l9-9v118.8L105.552,446.074z"/>
<path display="none" opacity="0.3" fill="#AA0000" enable-background="new    " d="M561.417,309.298L315.802,63.684L162.981,216.125
	l0.762-1.468v-29.384v-78.445c0-0.457-0.091-0.903-0.27-1.324c-0.193-0.456-0.445-0.854-0.707-1.117
	c-0.225-0.224-0.613-0.457-1.121-0.673c-0.488-0.206-0.947-0.316-1.332-0.316h-51.386c-0.354,0-0.794,0.11-1.313,0.328
	c-0.634,0.269-0.928,0.508-1.044,0.625l-0.035,0.036l-0.036,0.036c-0.25,0.25-0.494,0.633-0.685,1.081
	c-0.178,0.421-0.269,0.867-0.269,1.324v161.487v4.987l0.188-0.074l-36.158,36.069c-7.448,7.446-7.448,19.524,0,26.973
	c7.447,7.448,19.523,7.448,26.973,0l218.948-218.947l218.946,218.947c7.448,7.448,19.523,7.448,26.974,0
	C568.865,328.822,568.865,316.744,561.417,309.298z"/>
<rect x="0" display="none" fill="#FFFFFF" stroke="#000000" stroke-miterlimit="10" width="631.605" height="617"/>
<path fill="#FFFFFF" stroke="#C8C8C8" stroke-width="4.6705" d="M615.993,148.791c0,12.319-10.08,22.4-22.402,22.4h-21.278
	c-12.88,44.054-40.506,88.48-79.709,130.481c15.683,11.947,31.922,23.332,48.723,33.599c10.264,6.35,13.627,19.601,7.652,30.242
	l-14.745,25.943c-6.352,11.015-20.35,14.561-31.175,8.028c-23.521-14.559-45.733-30.053-66.082-46.48
	c-20.346,16.239-42.374,31.922-66.081,46.48c-10.827,6.532-24.825,2.986-31.173-8.028l-14.745-25.943
	c-5.976-10.455-2.612-23.893,7.841-30.242c17.359-10.641,33.596-21.838,48.717-33.599c-14.745-15.679-27.812-31.735-39.197-47.975
	c-7.468-10.642-4.107-25.387,6.906-31.919l12.132-7.28l13.631-8.026c10.076-5.973,23.144-3.173,29.864,6.348
	c9.333,13.064,20.157,26.133,32.479,39.013c25.202-26.508,44.428-53.948,56.001-80.641H279.989c-12.319,0-22.4-10.081-22.4-22.4
	v-29.868c0-12.32,10.081-22.399,22.4-22.399h119.468V66.658c0-12.321,10.079-22.402,22.4-22.402h29.869
	c12.318,0,22.397,10.081,22.397,22.402v29.866h119.467c12.322,0,22.402,10.079,22.402,22.399V148.791z M334.95,543.037
	L227.615,227.379c-3.173-8.961-11.76-15.12-21.28-15.12h-60.667c-9.707,0-18.107,5.973-21.28,15.12L17.055,543.037
	c-4.854,14.557,5.973,29.681,21.278,29.681h42.748c9.895,0,18.665-6.723,21.467-16.245l16.985-59.356h112.376l17.547,59.545
	c2.811,9.516,11.544,16.049,21.466,16.057h42.747C329.162,572.718,339.802,557.594,334.95,543.037z M140.255,426.552l20.72-69.998
	c6.532-22.587,14.56-61.975,14.56-61.975h0.932c0,0,8.029,39.388,14.561,61.975l20.348,69.998H140.255z"/>
<path fill="#60DF33" d="M451.726,56.256c5.733,0,10.397,4.667,10.397,10.402v29.866v12h12h119.467
	c5.736,0,10.402,4.665,10.402,10.399v29.868c0,5.735-4.666,10.4-10.402,10.4h-21.278h-8.994l-2.523,8.633
	c-6.057,20.714-15.71,41.944-28.693,63.101c-12.891,21.006-29.132,42.054-48.271,62.559l-9.051,9.696l10.552,8.037
	c17.394,13.251,33.655,24.463,49.709,34.276c4.737,2.951,6.267,9.144,3.486,14.122l-14.705,25.873
	c-1.914,3.299-5.308,5.267-9.084,5.267c-1.893,0-3.77-0.524-5.433-1.517c-23.744-14.7-45.544-30.033-64.791-45.571l-7.495-6.051
	l-7.528,6.009c-20.87,16.658-42.681,32.001-64.824,45.602c-1.668,1-3.553,1.528-5.453,1.528c-3.777,0-7.171-1.97-9.082-5.271
	l-14.736-25.927c-2.81-4.917-1.206-11.08,3.694-14.057c17.658-10.823,34.418-22.383,49.813-34.357l10.404-8.092l-9.03-9.601
	c-14.109-15.003-26.933-30.696-38.116-46.646c-1.632-2.326-2.197-5.16-1.591-7.979c0.616-2.868,2.32-5.257,4.797-6.726l0.026-0.016
	l0.026-0.016l12.086-7.252l13.621-8.021c1.61-0.955,3.453-1.459,5.331-1.459c3.445,0,6.664,1.646,8.61,4.404l0.02,0.028l0.02,0.027
	c9.808,13.728,21.103,27.298,33.571,40.333l8.698,9.093l8.671-9.119c26.636-28.017,46.255-56.324,58.313-84.136l7.272-16.773H493.35
	H279.989c-5.735,0-10.4-4.666-10.4-10.4v-29.868c0-5.734,4.666-10.399,10.4-10.399h119.468h12v-12V66.658
	c0-5.735,4.666-10.402,10.4-10.402H451.726"/>
<path fill="#DBD237" d="M323.577,546.864L216.283,231.329c-1.502-4.166-5.584-7.069-9.948-7.069h-60.667
	c-4.614,0-8.418,2.691-9.934,7.026L28.431,546.858c-1.076,3.252-0.538,6.718,1.476,9.513c1.991,2.763,5.063,4.347,8.427,4.347
	h42.748c4.527,0,8.611-3.122,9.944-7.598l16.971-59.306l2.489-8.698h9.048h112.376h8.974l2.537,8.608l17.547,59.545
	c1.293,4.379,5.392,7.444,9.964,7.448h42.737c4.668,0,7.306-2.692,8.462-4.297C324.137,553.638,324.663,550.157,323.577,546.864z
	 M211.376,438.552h-71.121h-16.067l4.561-15.406l20.707-69.952c6.324-21.875,14.243-60.622,14.322-61.011l1.958-9.604h9.801h0.932
	h9.8l1.958,9.603c0.079,0.389,8.009,39.181,14.33,61.038l20.343,69.982l4.462,15.35H211.376z"/>
<linearGradient id="SVGID_3_" gradientUnits="userSpaceOnUse" x1="86.9939" y1="228.0244" x2="189.0525" y2="395.8813">
	<stop  offset="0" style="stop-color:#FFFFFF"/>
	<stop  offset="1" style="stop-color:#FFFFFF;stop-opacity:0"/>
</linearGradient>
<path fill="url(#SVGID_3_)" d="M216.283,231.329c-1.502-4.166-5.584-7.069-9.948-7.069h-60.667c-4.614,0-8.418,2.691-9.934,7.026
	L73.226,415.117c21.559-12.206,43.959-22.249,66.856-30.261l9.373-31.663c6.324-21.875,14.243-60.622,14.322-61.011l1.958-9.604
	h9.801h0.932h9.8l1.958,9.603c0.079,0.389,8.009,39.181,14.33,61.038l4.112,14.146c17.852-3.222,35.799-5.341,53.691-6.416
	L216.283,231.329z"/>
<linearGradient id="SVGID_4_" gradientUnits="userSpaceOnUse" x1="365.7517" y1="17.0181" x2="493.4601" y2="227.0616">
	<stop  offset="0" style="stop-color:#FFFFFF"/>
	<stop  offset="1" style="stop-color:#FFFFFF;stop-opacity:0"/>
</linearGradient>
<path fill="url(#SVGID_4_)" d="M572.312,159.191h-8.994l-2.523,8.633c-3.646,12.467-8.603,25.121-14.795,37.833
	c-20.449,0.861-40.995,3.01-61.437,6.524c7.975-12.123,14.594-24.216,19.797-36.217l7.272-16.773H493.35H279.989
	c-5.735,0-10.4-4.666-10.4-10.4v-29.868c0-5.734,4.666-10.399,10.4-10.399h119.468h12v-12V66.658c0-5.735,4.666-10.402,10.4-10.402
	h29.869c5.733,0,10.397,4.667,10.397,10.402v29.866v12h12h119.467c5.736,0,10.402,4.665,10.402,10.399v29.868
	c0,5.735-4.666,10.4-10.402,10.4H572.312z M395.106,219.795l-0.02-0.027l-0.02-0.028c-1.946-2.757-5.165-4.404-8.61-4.404
	c-1.878,0-3.721,0.504-5.331,1.459l-13.621,8.021l-12.086,7.252l-0.026,0.016l-0.026,0.016c-2.477,1.469-4.181,3.858-4.797,6.726
	c-0.606,2.82-0.041,5.653,1.591,7.979c1.678,2.394,3.405,4.778,5.155,7.159c15.64-7.934,31.642-14.841,47.896-20.764
	C401.697,228.756,398.314,224.285,395.106,219.795z"/>
</svg>
