<?xml version="1.0" encoding="utf-8"?>
<!-- Generator: Adobe Illustrator 16.0.0, SVG Export Plug-In . SVG Version: 6.00 Build 0)  -->
<!DOCTYPE svg PUBLIC "-//W3C//DTD SVG 1.1//EN" "http://www.w3.org/Graphics/SVG/1.1/DTD/svg11.dtd">
<svg version="1.1"
	 id="svg2" xmlns:dc="http://purl.org/dc/elements/1.1/" xmlns:cc="http://creativecommons.org/ns#" xmlns:rdf="http://www.w3.org/1999/02/22-rdf-syntax-ns#" xmlns:svg="http://www.w3.org/2000/svg" xmlns:sodipodi="http://sodipodi.sourceforge.net/DTD/sodipodi-0.dtd" xmlns:inkscape="http://www.inkscape.org/namespaces/inkscape" sodipodi:version="0.32" sodipodi:modified="TRUE" inkscape:export-ydpi="90" inkscape:export-xdpi="90" inkscape:output_extension="org.inkscape.output.svg.inkscape" sodipodi:docname="barretr-House.svg" inkscape:export-filename="/home/barret/Desktop/house.png" inkscape:version="0.48.4 r9939"
	 xmlns="http://www.w3.org/2000/svg" xmlns:xlink="http://www.w3.org/1999/xlink" x="0px" y="0px" width="604.786px"
	 height="532.512px" viewBox="13.548 41.92 604.786 532.512" enable-background="new 13.548 41.92 604.786 532.512"
	 xml:space="preserve">
<path fill="#595959" stroke="#383838" stroke-width="4.6705" d="M588.494,560.267c15.189,0,27.505-12.313,27.505-27.505v-220.7
	c0-15.189-12.314-27.504-27.506-27.504h-70.862V165.479c0-13.216-10.714-23.929-23.935-23.929h-8.278V44.256H146.46v97.294h-8.933
	c-13.219,0-23.935,10.713-23.935,23.931v119.076l-69.884,0.319c-15.189,0-27.504,12.314-27.504,27.504l-0.321,220.39
	c0,15.189,12.314,27.505,27.506,27.505h1.063c4.158,7.072,11.843,11.823,20.645,11.823l501.698-0.004
	c8.799,0,16.481-4.752,20.64-11.827H588.494L588.494,560.267z"/>
<linearGradient id="SVGID_1_" gradientUnits="userSpaceOnUse" x1="23.4827" y1="170.5225" x2="591.5994" y2="170.5225" gradientTransform="matrix(1 0 0 -1 8.3999 592.9375)">
	<stop  offset="0" style="stop-color:#9EA4B3"/>
	<stop  offset="1" style="stop-color:#C7C9D0"/>
</linearGradient>
<path fill="url(#SVGID_1_)" d="M599.998,312.38c-0.001-6.52-5.306-11.824-11.825-11.824H43.709c-6.521,0-11.826,5.305-11.826,11.824
	v220.069c0,6.521,5.308,11.825,11.827,11.825h544.464c6.521,0,11.825-5.306,11.825-11.824L599.998,312.38L599.998,312.38z"/>
<path fill="#686868" d="M505.848,544.275V447.93c0-6.52-5.308-11.823-11.826-11.823H137.855c-6.521,0-11.826,5.305-11.826,11.823
	v96.346H57.278v4.006c0,4.318,3.501,7.818,7.819,7.818h501.698c4.317,0,7.817-3.502,7.817-7.818v-4.006H505.848z"/>
<rect x="146.811" y="505.985" fill="#4F4F4F" width="334" height="23.8"/>
<rect x="146.811" y="473.118" fill="#4F4F4F" width="334" height="23.8"/>
<path fill="#686868" d="M457.477,323.065c-13.218,0-23.934,10.717-23.934,23.935s10.716,23.935,23.934,23.935h62.668
	c13.218,0,23.934-10.717,23.934-23.935s-10.716-23.935-23.934-23.935H457.477z"/>
<circle fill="#60DF33" cx="520.145" cy="347" r="11.024"/>
<circle fill="#DBD237" cx="488.811" cy="347" r="11.024"/>
<circle fill="#DD364A" cx="457.477" cy="347" r="11.024"/>
<path fill="#686868" d="M137.527,157.665c-4.318,0-7.819,3.5-7.819,7.819l-0.115,135.071l372.039,0.001V165.368
	c0-4.317-3.5-7.819-7.819-7.819L137.527,157.665z"/>
<path fill="#6FA8E2" d="M385.835,323.065H246.038c-1.895,0-3.43,1.535-3.43,3.431v29.14c0,1.895,1.536,3.432,3.43,3.432
	l139.016-0.099c0.252,0.06,0.512,0.099,0.781,0.099c0.271,0,0.53-0.039,0.783-0.1h0.02l0.006-0.008
	c1.502-0.363,2.621-1.71,2.621-3.324v-29.14C389.264,324.603,387.729,323.065,385.835,323.065z"/>
<rect x="162.46" y="60.255" fill="#DDDDDD" width="306.959" height="240.301"/>
<linearGradient id="SVGID_2_" gradientUnits="userSpaceOnUse" x1="89.4368" y1="568.3311" x2="350.946" y2="149.8289" gradientTransform="matrix(1 0 0 -1 8.3999 592.9375)">
	<stop  offset="0" style="stop-color:#FFFFFF"/>
	<stop  offset="1" style="stop-color:#FFFFFF;stop-opacity:0"/>
</linearGradient>
<path fill="url(#SVGID_2_)" d="M599.998,314.035v-1.655c-0.001-6.521-5.306-11.824-11.825-11.824h-86.542V165.368
	c0-4.317-3.5-7.819-7.819-7.819l-24.395,0.008V60.255H162.459v97.402l-24.933,0.008c-4.317,0-7.819,3.5-7.819,7.819l-0.115,135.071
	l-85.883,0.001c-6.521,0-11.826,5.305-11.826,11.824v165.683C196.656,344.019,408.292,296.762,599.998,314.035z"/>
</svg>
