<?xml version="1.0" encoding="utf-8"?>
<!-- Generator: Adobe Illustrator 16.0.0, SVG Export Plug-In . SVG Version: 6.00 Build 0)  -->
<!DOCTYPE svg PUBLIC "-//W3C//DTD SVG 1.1//EN" "http://www.w3.org/Graphics/SVG/1.1/DTD/svg11.dtd">
<svg version="1.1"
	 id="svg2" xmlns:dc="http://purl.org/dc/elements/1.1/" xmlns:cc="http://creativecommons.org/ns#" xmlns:rdf="http://www.w3.org/1999/02/22-rdf-syntax-ns#" xmlns:svg="http://www.w3.org/2000/svg" xmlns:sodipodi="http://sodipodi.sourceforge.net/DTD/sodipodi-0.dtd" xmlns:inkscape="http://www.inkscape.org/namespaces/inkscape" inkscape:version="0.48.4 r9939" inkscape:export-filename="/home/barret/Desktop/house.png" sodipodi:docname="barretr-House.svg" inkscape:output_extension="org.inkscape.output.svg.inkscape" inkscape:export-xdpi="90" inkscape:export-ydpi="90" sodipodi:modified="TRUE" sodipodi:version="0.32"
	 xmlns="http://www.w3.org/2000/svg" xmlns:xlink="http://www.w3.org/1999/xlink" x="0px" y="0px" width="688.574px"
	 height="616.928px" viewBox="-28.35 0.023 688.574 616.928" enable-background="new -28.35 0.023 688.574 616.928"
	 xml:space="preserve">
<path fill="#FFFFFF" stroke="#C8C8C8" stroke-width="4.6705" d="M588.494,560.267c15.189,0,27.504-12.314,27.504-27.505V312.061
	c0-15.189-12.314-27.504-27.505-27.504H517.63V165.479c0-13.216-10.713-23.929-23.934-23.929h-8.279V44.256H146.46v97.294h-8.933
	c-13.219,0-23.934,10.713-23.934,23.931v119.076l-69.884,0.319c-15.19,0-27.504,12.314-27.504,27.504l-0.321,220.39
	c0,15.189,12.314,27.504,27.505,27.504h1.064c4.158,7.073,11.843,11.824,20.644,11.824l501.698-0.004
	c8.799,0,16.482-4.752,20.64-11.827H588.494z"/>
<linearGradient id="SVGID_1_" gradientUnits="userSpaceOnUse" x1="31.8826" y1="422.415" x2="599.9983" y2="422.415">
	<stop  offset="0" style="stop-color:#9EA4B3"/>
	<stop  offset="1" style="stop-color:#C7C9D0"/>
</linearGradient>
<path fill="url(#SVGID_1_)" d="M599.998,312.38c-0.001-6.52-5.306-11.824-11.826-11.824H43.709c-6.521,0-11.826,5.305-11.826,11.824
	v220.069c0,6.521,5.307,11.825,11.827,11.825h544.463c6.521,0,11.825-5.305,11.825-11.824V312.38z"/>
<path fill="#686868" d="M505.848,544.275V447.93c0-6.52-5.307-11.824-11.826-11.824H137.855c-6.521,0-11.826,5.305-11.826,11.824
	v96.345H57.278v4.006c0,4.319,3.501,7.819,7.819,7.819h501.698c4.318,0,7.818-3.502,7.818-7.819v-4.006L505.848,544.275z"/>
<rect x="146.811" y="505.985" fill="#4F4F4F" width="334" height="23.8"/>
<rect x="146.811" y="473.118" fill="#4F4F4F" width="334" height="23.8"/>
<path fill="#686868" d="M457.477,323.066c-13.218,0-23.934,10.716-23.934,23.934s10.716,23.934,23.934,23.934h62.668
	c13.218,0,23.934-10.716,23.934-23.934s-10.716-23.934-23.934-23.934H457.477z"/>
<circle fill="#60DF33" cx="520.145" cy="347" r="11.025"/>
<circle fill="#DBD237" cx="488.811" cy="347" r="11.025"/>
<circle fill="#DD364A" cx="457.477" cy="347" r="11.025"/>
<path fill="#686868" d="M137.527,157.665c-4.318,0-7.819,3.5-7.819,7.819l-0.115,135.071l372.038,0.001V165.368
	c0-4.317-3.5-7.819-7.819-7.819L137.527,157.665z"/>
<path fill="#6FA8E2" d="M385.834,323.066H246.038c-1.895,0-3.43,1.535-3.43,3.43v29.14c0,1.895,1.536,3.431,3.43,3.431
	l139.015-0.098c0.252,0.059,0.512,0.098,0.781,0.098c0.271,0,0.531-0.039,0.784-0.099h0.019l0.006-0.008
	c1.502-0.364,2.621-1.71,2.621-3.324v-29.14C389.264,324.602,387.729,323.066,385.834,323.066z"/>
<rect x="162.46" y="60.255" fill="#DDDDDD" width="306.958" height="240.301"/>
<linearGradient id="SVGID_2_" gradientUnits="userSpaceOnUse" x1="97.8367" y1="24.6055" x2="359.3459" y2="443.1077">
	<stop  offset="0" style="stop-color:#FFFFFF"/>
	<stop  offset="1" style="stop-color:#FFFFFF;stop-opacity:0"/>
</linearGradient>
<path fill="url(#SVGID_2_)" d="M599.998,314.035v-1.655c-0.001-6.521-5.306-11.824-11.826-11.824H501.63V165.368
	c0-4.317-3.5-7.819-7.819-7.819l-24.394,0.008V60.255H162.459v97.402l-24.933,0.008c-4.317,0-7.819,3.5-7.819,7.819l-0.115,135.071
	l-85.883,0.001c-6.521,0-11.826,5.305-11.826,11.824v165.682C196.656,344.018,408.292,296.762,599.998,314.035z"/>
</svg>
