<svg id="Layer_1" enable-background="new 0 0 510 510" height="512" viewBox="0 0 510 510" width="512" xmlns="http://www.w3.org/2000/svg"><g id="XMLID_2118_"><path id="XMLID_2171_" d="m60 420-15 15-15-15v-330l15-15 15 15z" fill="#76e2f8"/><path id="XMLID_2168_" d="m420 480h-330l-10-13.5 10-16.5h330l10 15z" fill="#4bb9ec"/><path id="XMLID_2165_" d="m480 420-15 10-15-10v-330l15-10 15 10z" fill="#4bb9ec"/><path id="XMLID_2163_" d="m420 60h-330l-15-15 15-15h330l10 15z" fill="#76e2f8"/><path id="XMLID_2159_" d="m116.36 176.361h150.001v30h-150.001z" fill="#ffda2d" transform="matrix(.707 -.707 .707 .707 -79.264 191.36)"/><path id="XMLID_2153_" d="m243.639 303.64h150.001v30h-150.001z" fill="#fdbf00" transform="matrix(.707 -.707 .707 .707 -131.985 318.64)"/><path id="XMLID_2150_" d="m0 0h90v90h-90z" fill="#6058ad"/><path id="XMLID_2143_" d="m510 510h-90v-90h90z" fill="#453f81"/><path id="XMLID_2139_" d="m420 0v90l52.834-32.834 37.166-57.166z" fill="#6058ad"/><path id="XMLID_2133_" d="m420 90h90v-90z" fill="#453f81"/><path id="XMLID_2127_" d="m329.246 159.54-169.706 169.706 10.607 10.607 88.52-78.52 81.185-91.185z" fill="#ffda2d"/><path id="XMLID_2123_" d="m140.303 252.803h240v14.999h-240z" fill="#fdbf00" transform="matrix(.707 -.707 .707 .707 -107.821 260.303)"/><path id="XMLID_2122_" d="m0 510 57.5-37.5 32.5-52.5h-90z" fill="#6058ad"/><path id="XMLID_2119_" d="m90 510v-90l-90 90z" fill="#453f81"/></g></svg>