<svg id="Capa_1" enable-background="new 0 0 512 512" height="512" viewBox="0 0 512 512" width="512" xmlns="http://www.w3.org/2000/svg"><path d="m460.14 172.515c-29.56-27.89-69.39-45-113.14-45h-170v-73.03l-177 118.03 177 118.03v-73.03h170c41.36 0 75 33.65 75 75s-33.64 75-75 75h-196v90h196c90.98 0 165-74.02 165-165 0-47.23-19.95-89.89-51.86-120z" fill="#ff641a"/><path d="m512 292.515c0 90.98-74.02 165-165 165h-196v-90h196c41.36 0 75-33.65 75-75s-33.64-75-75-75h-170v73.03l-177-118.03h460.14c31.91 30.11 51.86 72.77 51.86 120z" fill="#f03800"/></svg>