<?xml version="1.0" encoding="UTF-8" standalone="no"?>
<svg
   xmlns:dc="http://purl.org/dc/elements/1.1/"
   xmlns:cc="http://creativecommons.org/ns#"
   xmlns:rdf="http://www.w3.org/1999/02/22-rdf-syntax-ns#"
   xmlns:svg="http://www.w3.org/2000/svg"
   xmlns="http://www.w3.org/2000/svg"
   xmlns:sodipodi="http://sodipodi.sourceforge.net/DTD/sodipodi-0.dtd"
   xmlns:inkscape="http://www.inkscape.org/namespaces/inkscape"
   id="Layer_1"
   version="1.1"
   xml:space="preserve"
   viewBox="0 0 40 40"
   enable-background="new 0 0 42 42"
   y="0px"
   x="0px"
   inkscape:version="0.91 r13725"
   sodipodi:docname="dwcheckyes.svg"
   width="40"
   height="40"><defs
     id="defs19"><linearGradient
       y2="-373"
       x2="306"
       gradientTransform="matrix(1,0,0,-1,-286,-333)"
       y1="-333"
       gradientUnits="userSpaceOnUse"
       x1="306"
       id="SVGID_1_"><stop
         id="stop7"
         offset="0"
         stop-color="#5DF24F" /><stop
         id="stop9"
         offset="1"
         stop-color="#2A9C06" /></linearGradient></defs><sodipodi:namedview
     pagecolor="#ffffff"
     bordercolor="#666666"
     borderopacity="1"
     objecttolerance="10"
     gridtolerance="10"
     guidetolerance="10"
     inkscape:pageopacity="0"
     inkscape:pageshadow="2"
     inkscape:window-width="950"
     inkscape:window-height="637"
     id="namedview17"
     showgrid="false"
     fit-margin-top="0"
     fit-margin-left="0"
     fit-margin-right="0"
     fit-margin-bottom="0"
     inkscape:zoom="5.6190476"
     inkscape:cx="62.711864"
     inkscape:cy="20"
     inkscape:window-x="909"
     inkscape:window-y="261"
     inkscape:window-maximized="0"
     inkscape:current-layer="Layer_1" /><circle
     style="fill:#ffffff"
     id="circle4"
     r="20"
     cx="20"
     cy="20" /><path
     style="fill:url(#SVGID_1_)"
     inkscape:connector-curvature="0"
     id="path11"
     d="m 20,4 c 9.378,0 16,6.633 16,16 0,9.366 -6.622,16 -16,16 C 10.623,36 4,29.366 4,20 4,10.633 10.623,4 20,4 M 20,0 C 8.954,0 0,8.954 0,20 0,31.045 8.954,40 20,40 31.045,40 40,31.045 40,20 40,8.954 31.045,0 20,0 Z" /><path
     style="fill:#018700"
     inkscape:connector-curvature="0"
     id="path13"
     d="m 6.4319831,22.437898 c 0,0 0.845,-0.904 2.032,-1.904 1.187,-1 2.8749999,-2.563 2.8749999,-2.563 l 4.688,7.063 c 0,0 2.83,-6.455 6.563,-11.25 3.733,-4.7949997 5.625,-6.6879997 5.625,-6.6879997 0,0 0.281,3.0309997 0.345,5.4059997 0.063,2.375 -0.345,5.365 -0.345,5.365 0,0 -3.088,1.191 -6.125,5.083 -3.897,4.994 -5.688,8.708 -5.688,8.708 0,0 -1.563,-1.499 -4.313,-4.374 -2.7499999,-2.875 -5.6569999,-4.846 -5.6569999,-4.846 z" /><metadata
     id="metadata15"><rdf:RDF><cc:Work><dc:format>image/svg+xml</dc:format><dc:type
           rdf:resource="http://purl.org/dc/dcmitype/StillImage" /><cc:license
           rdf:resource="http://creativecommons.org/publicdomain/zero/1.0/" /><dc:publisher><cc:Agent
             rdf:about="http://openclipart.org/"><dc:title>Openclipart</dc:title></cc:Agent></dc:publisher><dc:title>dwcheckyes - &quot;complete&quot;</dc:title><dc:date>2013-04-30T15:49:56</dc:date><dc:description>icon, green, check, done, complete, finished, checked, ok, good, yes</dc:description><dc:source>https://openclipart.org/detail/177571/dwcheckyes---complete-by-forest51690-177571</dc:source><dc:creator><cc:Agent><dc:title>forest51690</dc:title></cc:Agent></dc:creator><dc:subject><rdf:Bag><rdf:li>check</rdf:li><rdf:li>checked</rdf:li><rdf:li>complete</rdf:li><rdf:li>done</rdf:li><rdf:li>finished</rdf:li><rdf:li>good</rdf:li><rdf:li>green</rdf:li><rdf:li>icon</rdf:li><rdf:li>ok</rdf:li><rdf:li>yes</rdf:li></rdf:Bag></dc:subject></cc:Work><cc:License
         rdf:about="http://creativecommons.org/publicdomain/zero/1.0/"><cc:permits
           rdf:resource="http://creativecommons.org/ns#Reproduction" /><cc:permits
           rdf:resource="http://creativecommons.org/ns#Distribution" /><cc:permits
           rdf:resource="http://creativecommons.org/ns#DerivativeWorks" /></cc:License></rdf:RDF></metadata></svg>