<svg id="Capa_1" enable-background="new 0 0 512 512" height="512" viewBox="0 0 512 512" width="512" xmlns="http://www.w3.org/2000/svg"><g><path d="m497 241h-54.789l34.395-34.395c5.859-5.859 5.859-15.352 0-21.211s-15.352-5.859-21.211 0l-55.606 55.606h-107.578l76.077-76.069h78.64c8.291 0 15-6.709 15-15s-6.709-15-15-15h-48.636l38.031-38.027c5.859-5.859 5.859-15.352 0-21.211s-15.352-5.859-21.211 0l-38.057 38.053v-48.659c0-8.291-6.709-15-15-15s-15 6.709-15 15v78.655l-76.055 76.047v-107.578l55.605-55.605c5.859-5.859 5.859-15.352 0-21.211s-15.352-5.859-21.211 0l-34.394 34.394v-54.789c0-8.291-6.709-15-15-15s-15 6.709-15 15v54.789l-34.395-34.395c-5.859-5.859-15.352-5.859-21.211 0s-5.859 15.352 0 21.211l55.606 55.606v107.578l-76.055-76.047v-78.655c0-8.291-6.709-15-15-15s-15 6.709-15 15v48.658l-38.056-38.053c-5.859-5.859-15.352-5.859-21.211 0s-5.859 15.352 0 21.211l38.031 38.027h-48.637c-8.291 0-15 6.709-15 15s6.709 15 15 15h78.64l76.077 76.07h-107.578l-55.605-55.605c-5.859-5.859-15.352-5.859-21.211 0s-5.859 15.352 0 21.211l34.394 34.394h-54.789c-8.291 0-15 6.709-15 15s6.709 15 15 15h54.789l-34.395 34.395c-5.859 5.859-5.859 15.352 0 21.211s15.351 5.86 21.211 0l55.606-55.606h107.578l-76.077 76.069h-78.64c-8.291 0-15 6.709-15 15s6.709 15 15 15h48.636l-38.031 38.027c-5.859 5.859-5.859 15.352 0 21.211s15.351 5.86 21.211 0l38.057-38.053v48.658c0 8.291 6.709 15 15 15s15-6.709 15-15v-78.655l76.055-76.046v107.578l-55.605 55.605c-5.859 5.859-5.859 15.352 0 21.211s15.352 5.859 21.211 0l34.394-34.394v54.789c0 8.291 6.709 15 15 15s15-6.709 15-15v-54.789l34.395 34.395c5.859 5.859 15.351 5.86 21.211 0 5.859-5.859 5.859-15.352 0-21.211l-55.606-55.606v-107.578l76.055 76.047v78.655c0 8.291 6.709 15 15 15s15-6.709 15-15v-48.658l38.057 38.053c5.859 5.859 15.351 5.86 21.211 0 5.859-5.859 5.859-15.352 0-21.211l-38.031-38.027h48.636c8.291 0 15-6.709 15-15s-6.709-15-15-15h-78.64l-76.077-76.07h107.578l55.605 55.605c5.859 5.859 15.351 5.86 21.211 0 5.859-5.859 5.859-15.352 0-21.211l-34.394-34.394h54.789c8.291 0 15-6.709 15-15s-6.709-15-15-15z" fill="#6cf"/><path d="m271 497v-54.789l34.395 34.395c5.859 5.859 15.352 5.859 21.211 0s5.859-15.352 0-21.211l-55.606-55.606v-107.578l76.055 76.047v78.655c0 8.291 6.709 15 15 15s15-6.709 15-15v-48.658l38.057 38.053c5.859 5.859 15.352 5.859 21.211 0s5.859-15.352 0-21.211l-38.031-38.027h48.636c8.291 0 15-6.709 15-15s-6.709-15-15-15h-78.64l-76.077-76.07h107.578l55.605 55.605c5.859 5.859 15.352 5.859 21.211 0s5.859-15.352 0-21.211l-34.394-34.394h54.789c8.291 0 15-6.709 15-15s-6.709-15-15-15h-54.789l34.395-34.395c5.859-5.859 5.859-15.352 0-21.211s-15.352-5.859-21.211 0l-55.606 55.606h-107.578l76.077-76.069h78.64c8.291 0 15-6.709 15-15s-6.709-15-15-15h-48.636l38.031-38.027c5.859-5.859 5.859-15.352 0-21.211s-15.352-5.859-21.211 0l-38.057 38.053v-48.659c0-8.291-6.709-15-15-15s-15 6.709-15 15v78.655l-76.055 76.047v-107.578l55.605-55.605c5.859-5.859 5.859-15.352 0-21.211s-15.352-5.859-21.211 0l-34.394 34.394v-54.789c0-8.291-6.709-15-15-15v512c8.291 0 15-6.709 15-15z" fill="#59abff"/><g><path d="m256 301c-24.814 0-45-20.186-45-45s20.186-45 45-45 45 20.186 45 45-20.186 45-45 45z" fill="#6cf"/></g><path d="m301 256c0-24.814-20.186-45-45-45v90c24.814 0 45-20.186 45-45z" fill="#59abff"/></g></svg>