<?xml version="1.0" encoding="UTF-8" standalone="no"?>
<svg
   height="496"
   viewBox="0 0 60 62"
   width="480"
   version="1.1"
   id="svg167"
   sodipodi:docname="picture.svg"
   inkscape:version="1.2-beta (1b65182c, 2022-04-05)"
   xmlns:inkscape="http://www.inkscape.org/namespaces/inkscape"
   xmlns:sodipodi="http://sodipodi.sourceforge.net/DTD/sodipodi-0.dtd"
   xmlns="http://www.w3.org/2000/svg"
   xmlns:svg="http://www.w3.org/2000/svg">
  <defs
     id="defs171" />
  <sodipodi:namedview
     id="namedview169"
     pagecolor="#ffffff"
     bordercolor="#000000"
     borderopacity="0.25"
     inkscape:pageshadow="2"
     inkscape:pageopacity="0.0"
     inkscape:pagecheckerboard="0"
     inkscape:deskcolor="#d1d1d1"
     showgrid="false"
     inkscape:zoom="0.4609375"
     inkscape:cx="239.72881"
     inkscape:cy="247.32203"
     inkscape:window-width="1344"
     inkscape:window-height="456"
     inkscape:window-x="0"
     inkscape:window-y="25"
     inkscape:window-maximized="0"
     inkscape:current-layer="svg167" />
  <g
     id="_13-Picture"
     data-name="13-Picture"
     transform="translate(-2,-1)">
    <circle
       cx="13"
       cy="12"
       fill="#f7f3eb"
       r="6"
       id="circle132" />
    <path
       d="M 30,3 V 38 L 22,30 2,50 V 3 A 2.006,2.006 0 0 1 4,1 h 24 a 2.006,2.006 0 0 1 2,2 z m -11,9 a 6,6 0 1 0 -6,6 6,6 0 0 0 6,-6 z"
       fill="#ffd146"
       id="path134" />
    <path
       d="M 62,11 V 38 L 55,31 39,47 34,42 V 11 a 2.006,2.006 0 0 1 2,-2 h 24 a 2.006,2.006 0 0 1 2,2 z"
       fill="#ffd146"
       id="path136" />
    <path
       d="m 30,38 v 15 a 2.006,2.006 0 0 1 -2,2 H 4 A 2.006,2.006 0 0 1 2,53 V 50 L 22,30 Z"
       fill="#8c9882"
       id="path138" />
    <path
       d="M 55,63 H 36 A 2.006,2.006 0 0 1 34,61 V 42 l 5,5 z"
       fill="#8c9882"
       id="path140" />
    <path
       d="m 62,38 v 23 a 2.006,2.006 0 0 1 -2,2 H 55 L 39,47 55,31 Z"
       fill="#586957"
       id="path142" />
    <path
       d="M 56,54 44,42 39,47 55,63 h 5 a 2.006,2.006 0 0 0 2,-2 V 48 Z"
       fill="#455747"
       id="path144" />
    <path
       d="M 22,30 2,50 v 3 a 2.006,2.006 0 0 0 2,2 h 1 l 18,-18 7,7 v -6 z"
       fill="#a6aa93"
       id="path146" />
    <path
       d="m 39,47 -5,-5 v 6 l 15,15 h 6 z"
       fill="#a6aa93"
       id="path148" />
    <path
       d="m 2,50 20,-20 8,8 V 7 L 2,35 Z"
       fill="#ffc146"
       id="path150" />
    <path
       d="M 28,1 H 22 L 16.117,6.883 A 5.994,5.994 0 1 1 7.883,15.117 L 2,21 V 35 L 30,7 V 3 A 2.006,2.006 0 0 0 28,1 Z"
       fill="#ffd146"
       id="path152" />
    <path
       d="m 7,12 a 6,6 0 0 1 6,-6 5.945,5.945 0 0 1 3.117,0.883 L 22,1 H 4 A 2.006,2.006 0 0 0 2,3 V 21 L 7.883,15.117 A 5.945,5.945 0 0 1 7,12 Z"
       fill="#ffc146"
       id="path154" />
    <path
       d="m 34,40 v 2 l 5,5 16,-16 7,7 V 12 Z"
       fill="#d9882b"
       id="path156" />
    <path
       d="M 62,11 A 2.006,2.006 0 0 0 60,9 H 36 a 2.006,2.006 0 0 0 -2,2 V 40 L 62,12 Z"
       fill="#ffc146"
       id="path158" />
    <g
       fill="#6b411c"
       id="g164">
      <path
         d="M 28,1 H 4 A 2.006,2.006 0 0 0 2,3 v 50 a 2.006,2.006 0 0 0 2,2 h 24 a 2.006,2.006 0 0 0 2,-2 V 3 A 2.006,2.006 0 0 0 28,1 Z m 1,52 a 1,1 0 0 1 -1,1 H 4 A 1,1 0 0 1 3,53 V 3 A 1,1 0 0 1 4,2 h 24 a 1,1 0 0 1 1,1 z"
         id="path160" />
      <path
         d="M 60,9 H 36 a 2.006,2.006 0 0 0 -2,2 v 50 a 2.006,2.006 0 0 0 2,2 h 24 a 2.006,2.006 0 0 0 2,-2 V 11 A 2.006,2.006 0 0 0 60,9 Z m 1,52 a 1,1 0 0 1 -1,1 H 36 A 1,1 0 0 1 35,61 V 11 a 1,1 0 0 1 1,-1 h 24 a 1,1 0 0 1 1,1 z"
         id="path162" />
    </g>
  </g>
</svg>
