<?xml version="1.0" encoding="UTF-8"?>
<svg xmlns="http://www.w3.org/2000/svg" version="1.1" xmlns:cc="http://creativecommons.org/ns#" xmlns:dc="http://purl.org/dc/elements/1.1/" xmlns:inkscape="http://www.inkscape.org/namespaces/inkscape" xmlns:rdf="http://www.w3.org/1999/02/22-rdf-syntax-ns#" xmlns:sodipodi="http://sodipodi.sourceforge.net/DTD/sodipodi-0.dtd" xmlns:svg="http://www.w3.org/2000/svg" xmlns:xlink="http://www.w3.org/1999/xlink" viewBox="0 0 251.52353 533.43246">
  <defs>
    <style>
      .cls-1 {
        fill: url(#linear-gradient-2);
      }

      .cls-2 {
        fill: url(#linear-gradient-3);
      }

      .cls-3 {
        fill: url(#linear-gradient);
      }

      .cls-4 {
        fill: #595959;
        stroke: #383838;
        stroke-width: 4.6705px;
      }
    </style>
    <linearGradient id="linear-gradient" x1="17.33525" y1="266.71623" x2="234.18829" y2="266.71623" gradientUnits="userSpaceOnUse">
      <stop offset="0" stop-color="#0f66ce"/>
      <stop offset="1" stop-color="#0e76dd"/>
    </linearGradient>
    <linearGradient id="linear-gradient-2" x1="74.41866" y1="16.43953" x2="134.4846" y2="112.56511" gradientUnits="userSpaceOnUse">
      <stop offset="0" stop-color="#fff"/>
      <stop offset="1" stop-color="#fff" stop-opacity="0"/>
    </linearGradient>
    <linearGradient id="linear-gradient-3" x1="53.08733" y1="192.82262" x2="151.74087" y2="350.70127" xlink:href="#linear-gradient-2"/>
  </defs>
  <!-- Generator: Adobe Illustrator 28.7.1, SVG Export Plug-In . SVG Version: 1.2.0 Build 142)  -->
  <g>
    <g id="svg2">
      <path class="cls-4" d="M249.18828,494.41191c0,20.22833-16.45697,36.6853-36.6853,36.6853H39.02055c-20.22827,0-36.6853-16.45697-36.6853-36.6853s16.45703-36.6853,36.6853-36.6853h6.6853v-165.16766h-6.6853c-20.22827,0-36.6853-16.45703-36.6853-36.68542s16.45703-36.6853,36.6853-36.6853h130.11182c20.22833,0,36.6853,16.45697,36.6853,36.6853v201.85309h6.6853c20.22833,0,36.6853,16.45703,36.6853,36.6853ZM125.76176,205.81761c56.10034,0,101.74121-45.64087,101.74121-101.74121S181.86211,2.33525,125.76176,2.33525,24.02055,47.97612,24.02055,104.0764s45.64093,101.74121,101.74121,101.74121Z"/>
      <path class="cls-3" d="M212.50299,472.72662h-21.6853v-216.85304c0-11.98619-9.69914-21.6853-21.6853-21.6853H39.02055c-11.98619,0-21.6853,9.69911-21.6853,21.6853s9.69911,21.6853,21.6853,21.6853h21.6853v195.16774h-21.6853c-11.98619,0-21.6853,9.69914-21.6853,21.6853s9.69911,21.6853,21.6853,21.6853h173.48243c11.98621,0,21.6853-9.69914,21.6853-21.6853s-9.69914-21.6853-21.6853-21.6853ZM125.76177,190.81767c-47.81755,0-86.74122-38.90198-86.74122-86.74122S77.94422,17.33524,125.76177,17.33524s86.74122,38.90198,86.74122,86.74122-38.92369,86.74122-86.74122,86.74122Z"/>
      <path class="cls-1" d="M125.76176,17.33525c-47.81757,0-86.74121,38.90198-86.74121,86.74121,0,5.599.53967,11.0733,1.55786,16.37946,52.93951-25.49719,109.41797-41.11267,165.95068-48.01624-12.67017-32.23352-44.10364-55.10443-80.76733-55.10443Z"/>
      <path class="cls-2" d="M169.13237,234.18828H39.02055c-11.98621,0-21.6853,9.6991-21.6853,21.6853s9.6991,21.6853,21.6853,21.6853h21.6853v91.05127c42.1535-17.11774,86.07355-28.36096,130.11182-34.29047v-78.44611c0-11.98621-9.6991-21.6853-21.6853-21.6853Z"/>
    </g>
  </g>
</svg>