<?xml version="1.0" encoding="UTF-8" standalone="no"?>
<!-- Generator: Adobe Illustrator 19.0.0, SVG Export Plug-In . SVG Version: 6.00 Build 0)  -->

<svg
   version="1.1"
   id="Capa_1"
   x="0px"
   y="0px"
   viewBox="0 0 512 403.96701"
   xml:space="preserve"
   sodipodi:docname="megaphone-2.svg"
   width="512"
   height="403.96701"
   inkscape:version="1.2-beta (1b65182c, 2022-04-05)"
   xmlns:inkscape="http://www.inkscape.org/namespaces/inkscape"
   xmlns:sodipodi="http://sodipodi.sourceforge.net/DTD/sodipodi-0.dtd"
   xmlns="http://www.w3.org/2000/svg"
   xmlns:svg="http://www.w3.org/2000/svg"><defs
   id="defs51" /><sodipodi:namedview
   id="namedview49"
   pagecolor="#ffffff"
   bordercolor="#000000"
   borderopacity="0.25"
   inkscape:pageshadow="2"
   inkscape:pageopacity="0.0"
   inkscape:pagecheckerboard="0"
   inkscape:deskcolor="#d1d1d1"
   showgrid="false"
   inkscape:zoom="0.4609375"
   inkscape:cx="256"
   inkscape:cy="201.76271"
   inkscape:window-width="1344"
   inkscape:window-height="430"
   inkscape:window-x="0"
   inkscape:window-y="25"
   inkscape:window-maximized="0"
   inkscape:current-layer="Capa_1" />
<polygon
   style="fill:#ff5d5d"
   points="9.999,219.99 379.575,64.763 378.816,446.92 9.999,291.984 "
   id="polygon2"
   transform="translate(0,-54.016)" />
<ellipse
   style="fill:#ef3c3c"
   cx="383.47"
   cy="201.98399"
   rx="43.997002"
   ry="191.985"
   id="ellipse4" />
<path
   style="fill:#ffb9b7"
   d="m 343.973,249.607 c 26.232,0 47.496,-21.264 47.496,-47.496 0,-26.232 -21.264,-47.496 -47.496,-47.496 z"
   id="path6" />
<path
   d="m 502.001,191.985 h -28.038 c -5.522,0 -9.999,4.477 -9.999,9.999 0,5.523 4.478,9.999 9.999,9.999 h 28.038 c 5.522,0 9.999,-4.477 9.999,-9.999 0,-5.523 -4.477,-9.999 -9.999,-9.999 z"
   id="path8" />
<path
   d="m 473.973,164.195 c 1.696,0 3.416,-0.432 4.99,-1.341 l 18.359,-10.6 c 4.783,-2.761 6.422,-8.876 3.66,-13.659 -2.762,-4.783 -8.875,-6.421 -13.659,-3.66 l -18.359,10.599 c -4.783,2.761 -6.422,8.876 -3.66,13.659 1.852,3.209 5.212,5.002 8.669,5.002 z"
   id="path10" />
<path
   d="m 497.321,251.714 -18.359,-10.6 c -4.784,-2.762 -10.897,-1.123 -13.659,3.66 -2.762,4.783 -1.123,10.898 3.66,13.659 l 18.359,10.6 c 1.575,0.909 3.294,1.341 4.99,1.341 3.456,0 6.816,-1.793 8.669,-5.001 2.762,-4.783 1.124,-10.898 -3.66,-13.659 z"
   id="path12" />
<path
   d="m 383.47,0 c -3.391,0 -6.621,0.783 -9.702,2.341 L 6.128,156.756 C 2.415,158.314 0,161.947 0,165.974 v 71.994 c 0,4.026 2.415,7.659 6.127,9.219 l 53.931,22.656 c 0.032,0.014 0.065,0.027 0.097,0.041 l 25.839,10.853 v 62.735 c 0,15.714 12.784,28.498 28.498,28.498 h 90.993 c 15.714,0 28.498,-12.784 28.498,-28.498 v -0.567 l 139.8,58.728 c 3.077,1.553 6.302,2.334 9.688,2.334 17.624,0 30.988,-20.933 40.857,-63.997 8.473,-36.972 13.139,-85.976 13.139,-137.987 0,-52.011 -4.666,-101.015 -13.139,-137.987 C 414.458,20.933 401.094,0 383.47,0 Z m -33.997,201.984 c 0,-12.512 0.276,-24.832 0.813,-36.828 17.68,3.011 31.185,18.431 31.185,36.955 0,18.521 -13.5,33.937 -31.174,36.953 -0.545,-12.075 -0.824,-24.48 -0.824,-37.08 z M 19.998,172.619 351.619,33.334 c -3.28,8.548 -6.277,18.756 -9.005,30.663 -0.31,1.35 -0.612,2.722 -0.912,4.104 l -113.377,42.673 c -5.169,1.945 -7.781,7.712 -5.837,12.88 1.509,4.009 5.316,6.479 9.36,6.479 1.17,0 2.36,-0.208 3.521,-0.644 L 337.421,91.078 c -5.165,32.412 -7.946,70.76 -7.946,110.905 0,52.011 4.666,101.015 13.139,137.987 2.729,11.906 5.727,22.112 9.005,30.661 L 73.994,254.006 v -52.181 c 0,-5.523 -4.478,-9.999 -9.999,-9.999 -5.521,0 -9.999,4.477 -9.999,9.999 v 43.78 L 19.999,231.323 v -58.704 z m 193.985,170.854 c 0,4.687 -3.813,8.499 -8.499,8.499 h -90.993 c -4.687,0 -8.499,-3.813 -8.499,-8.499 v -54.334 l 107.992,45.366 v 8.968 z m 190.85,-7.968 c -9.13,39.841 -19.328,48.465 -21.363,48.465 -0.083,0 -0.183,-0.02 -0.292,-0.05 -0.162,-0.079 -0.32,-0.164 -0.488,-0.235 l -0.238,-0.1 c -3.356,-2.023 -12.266,-12.827 -20.345,-48.081 -4.974,-21.704 -8.58,-47.838 -10.638,-76.402 28.173,-3.687 50,-27.83 50,-56.991 0,-29.168 -21.837,-53.315 -50.018,-56.994 2.054,-28.663 5.668,-54.886 10.656,-76.654 8.074,-35.233 16.98,-46.046 20.34,-48.077 l 0.883,-0.371 c 0.049,-0.007 0.099,-0.017 0.141,-0.017 2.035,0 12.233,8.624 21.363,48.465 8.146,35.55 12.634,82.969 12.634,133.521 0,50.552 -4.487,97.97 -12.635,133.521 z"
   id="path14" />
<path
   d="m 189.914,145.918 c 1.165,0 2.35,-0.206 3.505,-0.638 l 0.229,-0.086 c 5.172,-1.937 7.794,-7.699 5.858,-12.871 -1.938,-5.171 -7.697,-7.793 -12.871,-5.858 l -0.229,0.086 c -5.172,1.937 -7.794,7.699 -5.858,12.871 1.504,4.017 5.315,6.496 9.366,6.496 z"
   id="path16" />
<g
   id="g18"
   transform="translate(0,-54.016)">
</g>
<g
   id="g20"
   transform="translate(0,-54.016)">
</g>
<g
   id="g22"
   transform="translate(0,-54.016)">
</g>
<g
   id="g24"
   transform="translate(0,-54.016)">
</g>
<g
   id="g26"
   transform="translate(0,-54.016)">
</g>
<g
   id="g28"
   transform="translate(0,-54.016)">
</g>
<g
   id="g30"
   transform="translate(0,-54.016)">
</g>
<g
   id="g32"
   transform="translate(0,-54.016)">
</g>
<g
   id="g34"
   transform="translate(0,-54.016)">
</g>
<g
   id="g36"
   transform="translate(0,-54.016)">
</g>
<g
   id="g38"
   transform="translate(0,-54.016)">
</g>
<g
   id="g40"
   transform="translate(0,-54.016)">
</g>
<g
   id="g42"
   transform="translate(0,-54.016)">
</g>
<g
   id="g44"
   transform="translate(0,-54.016)">
</g>
<g
   id="g46"
   transform="translate(0,-54.016)">
</g>
</svg>
