<?xml version="1.0" encoding="utf-8"?>
<!-- Generator: Adobe Illustrator 16.0.0, SVG Export Plug-In . SVG Version: 6.00 Build 0)  -->
<!DOCTYPE svg PUBLIC "-//W3C//DTD SVG 1.1//EN" "http://www.w3.org/Graphics/SVG/1.1/DTD/svg11.dtd">
<svg version="1.1"
	 id="svg2" xmlns:cc="http://creativecommons.org/ns#" xmlns:rdf="http://www.w3.org/1999/02/22-rdf-syntax-ns#" xmlns:sodipodi="http://sodipodi.sourceforge.net/DTD/sodipodi-0.dtd" xmlns:svg="http://www.w3.org/2000/svg" xmlns:inkscape="http://www.inkscape.org/namespaces/inkscape" xmlns:dc="http://purl.org/dc/elements/1.1/" sodipodi:version="0.32" inkscape:output_extension="org.inkscape.output.svg.inkscape" sodipodi:modified="TRUE" sodipodi:docname="barretr-House.svg" inkscape:version="0.48.4 r9939" inkscape:export-xdpi="90" inkscape:export-ydpi="90" inkscape:export-filename="/home/barret/Desktop/house.png"
	 xmlns="http://www.w3.org/2000/svg" xmlns:xlink="http://www.w3.org/1999/xlink" x="0px" y="0px" width="485.037px" height="617px"
	 viewBox="96.055 0 485.037 617" enable-background="new 96.055 0 485.037 617" xml:space="preserve">
<path fill="#FFFFFF" stroke="#C8C8C8" stroke-width="4.6705" d="M514.414,88.296h-67.341V46.131h-217v42.165h-67.338
	c-12.321,0-22.399,10.081-22.399,22.402v439.618c0,12.321,10.078,22.402,22.396,22.402h351.679
	c12.321,0,22.399-10.081,22.399-22.402V110.698C536.812,98.377,526.734,88.296,514.414,88.296z"/>
<path fill="#875717" d="M524.812,550.317c0,5.735-4.665,10.402-10.399,10.402h-351.68c-5.733,0-10.396-4.667-10.396-10.402V110.698
	c0-5.735,4.665-10.402,10.399-10.402h351.679c5.733,0,10.396,4.667,10.396,10.402L524.812,550.317L524.812,550.317z"/>
<g>
	<rect id="rect2328_1_" x="180.073" y="124.792" fill="#DDDDDD" width="314.739" height="382.507"/>
	<path id="path2336_1_" inkscape:connector-curvature="0" opacity="0.1307" stroke="#000000" enable-background="new    " d="
		M205.804,187.573h263.272"/>
	<path id="path2336_2_" inkscape:connector-curvature="0" opacity="0.1307" stroke="#000000" enable-background="new    " d="
		M205.804,240.86h263.272"/>
	<path id="path2336_3_" inkscape:connector-curvature="0" opacity="0.1307" stroke="#000000" enable-background="new    " d="
		M205.804,134.284h263.272"/>
	<path id="path2336_6_" inkscape:connector-curvature="0" opacity="0.1307" stroke="#000000" enable-background="new    " d="
		M205.804,294.149h263.272"/>
	<path id="path2336_5_" inkscape:connector-curvature="0" opacity="0.1307" stroke="#000000" enable-background="new    " d="
		M205.804,347.438h263.272"/>
	<path id="path2336_9_" inkscape:connector-curvature="0" opacity="0.1307" stroke="#000000" enable-background="new    " d="
		M205.804,400.727h263.272"/>
	<path id="path2336_8_" inkscape:connector-curvature="0" opacity="0.1307" stroke="#000000" enable-background="new    " d="
		M205.804,454.013h263.272"/>
</g>
<linearGradient id="SVGID_1_" gradientUnits="userSpaceOnUse" x1="338.5935" y1="471.2979" x2="338.5935" y2="557.9629" gradientTransform="matrix(1 0 0 -1 -0.02 616.0947)">
	<stop  offset="0" style="stop-color:#858585"/>
	<stop  offset="0.5" style="stop-color:#CBCBCB"/>
	<stop  offset="1" style="stop-color:#6B6B6B"/>
</linearGradient>
<rect x="242.073" y="58.131" fill="url(#SVGID_1_)" width="193" height="86.665"/>
<linearGradient id="SVGID_2_" gradientUnits="userSpaceOnUse" x1="212.2019" y1="19.6523" x2="376.8681" y2="283.1734">
	<stop  offset="0" style="stop-color:#FFFFFF"/>
	<stop  offset="1" style="stop-color:#FFFFFF;stop-opacity:0"/>
</linearGradient>
<path fill="url(#SVGID_2_)" d="M524.812,110.698c0-5.735-4.663-10.402-10.396-10.402h-79.341V58.131h-193v42.165h-79.339
	c-5.734,0-10.399,4.667-10.399,10.402v225.362c109.27-88.74,242.844-129.25,372.476-131.919V110.698z"/>
</svg>
