<?xml version="1.0" encoding="UTF-8" standalone="no"?>
<!-- Generator: Adobe Illustrator 21.0.0, SVG Export Plug-In . SVG Version: 6.00 Build 0)  -->

<svg
   version="1.1"
   id="Capa_1"
   x="0px"
   y="0px"
   viewBox="0 0 511.78906 484.95701"
   xml:space="preserve"
   width="512.00006"
   height="485.15695"
   sodipodi:docname="alarm.svg"
   inkscape:version="1.2-beta (1b65182c, 2022-04-05)"
   xmlns:inkscape="http://www.inkscape.org/namespaces/inkscape"
   xmlns:sodipodi="http://sodipodi.sourceforge.net/DTD/sodipodi-0.dtd"
   xmlns="http://www.w3.org/2000/svg"
   xmlns:svg="http://www.w3.org/2000/svg"><defs
   id="defs205" /><sodipodi:namedview
   id="namedview203"
   pagecolor="#ffffff"
   bordercolor="#000000"
   borderopacity="0.25"
   inkscape:pageshadow="2"
   inkscape:pageopacity="0.0"
   inkscape:pagecheckerboard="0"
   inkscape:deskcolor="#d1d1d1"
   showgrid="false"
   inkscape:zoom="0.4609375"
   inkscape:cx="159.45763"
   inkscape:cy="242.98305"
   inkscape:window-width="1344"
   inkscape:window-height="456"
   inkscape:window-x="0"
   inkscape:window-y="25"
   inkscape:window-maximized="0"
   inkscape:current-layer="Capa_1" />
<g
   id="g200"
   transform="translate(-2.4422403e-5,-13.416)">
	<g
   id="g184">
		<path
   style="fill:#ff4c04"
   d="M 467.492,498.373 H 44.296 c -15.981,0 -30.307,-8.255 -38.321,-22.081 -7.85,-13.545 -7.97,-29.521 -0.33,-43.836 l 211.6,-396.372 c 7.577,-14.194 22.026,-22.668 38.649,-22.668 16.624,0 31.072,8.474 38.65,22.668 v 0 l 211.599,396.371 c 7.642,14.314 7.521,30.293 -0.33,43.837 -8.013,13.826 -22.338,22.081 -38.321,22.081 z"
   id="path182" />
	</g>
	<path
   style="fill:#e10000"
   d="M 506.143,432.455 294.544,36.084 C 286.966,21.89 272.518,13.416 255.894,13.416 v 484.957 h 211.599 c 15.982,0 30.308,-8.255 38.32,-22.081 7.85,-13.544 7.971,-29.523 0.33,-43.837 z"
   id="path186" />
	<g
   id="g190">
		<path
   style="fill:#fff3f3"
   d="m 255.895,433.392 c -22.056,0 -40,-17.943 -40,-39.999 0,-22.056 17.944,-40 40,-40 22.056,0 40,17.944 40,40 0,22.056 -17.944,39.999 -40,39.999 z"
   id="path188" />
	</g>
	<g
   id="g194">
		<path
   style="fill:#fff3f3"
   d="m 255.896,313.393 c -22.057,0 -40.001,-17.944 -40.001,-40 v -86.5 c 0,-22.056 17.944,-40 40,-40 22.056,0 40,17.944 40,40 v 86.5 c 0,22.056 -17.943,40 -39.999,40 z"
   id="path192" />
	</g>
	<path
   style="fill:#dad0cb"
   d="m 255.895,146.893 h -0.001 v 166.5 c 0,0 0.002,0 0.002,0 22.056,0 39.999,-17.944 39.999,-40 v -86.5 c 0,-22.055 -17.944,-40 -40,-40 z"
   id="path196" />
	<path
   style="fill:#dad0cb"
   d="m 255.895,353.393 h -0.001 v 79.999 h 0.001 c 22.056,0 40,-17.943 40,-39.999 0,-22.056 -17.944,-40 -40,-40 z"
   id="path198" />
</g>















</svg>
